<?xml version="1.0" encoding="utf-8"?>
<!-- Generator: Adobe Illustrator 27.5.0, SVG Export Plug-In . SVG Version: 6.00 Build 0)  -->
<svg version="1.1" xmlns="http://www.w3.org/2000/svg" xmlns:xlink="http://www.w3.org/1999/xlink" x="0px" y="0px"
	 viewBox="0 0 750 500" style="enable-background:new 0 0 750 500;" xml:space="preserve">
<g id="Background_complete">
	<g>
		<g>
			<g>
				<g>
					<g>
						<g>
							<path style="fill:#E0E0E0;" d="M673.734,332.473H492.988c-3.232,0-5.862-2.63-5.862-5.862V63.338
								c0-3.232,2.63-5.862,5.862-5.862h180.746c3.232,0,5.862,2.629,5.862,5.862v263.273
								C679.596,329.844,676.966,332.473,673.734,332.473z M492.988,57.726c-3.095,0-5.612,2.518-5.612,5.612v263.273
								c0,3.095,2.518,5.612,5.612,5.612h180.746c3.095,0,5.612-2.518,5.612-5.612V63.338c0-3.094-2.518-5.612-5.612-5.612H492.988z
								"/>
						</g>
					</g>
					<g>
						<g>
							<path style="fill:#E0E0E0;" d="M465.306,332.473H284.56c-3.232,0-5.862-2.63-5.862-5.862V63.338
								c0-3.232,2.629-5.862,5.862-5.862h180.747c3.232,0,5.862,2.629,5.862,5.862v263.273
								C471.168,329.844,468.538,332.473,465.306,332.473z M284.56,57.726c-3.094,0-5.612,2.518-5.612,5.612v263.273
								c0,3.095,2.518,5.612,5.612,5.612h180.747c3.095,0,5.612-2.518,5.612-5.612V63.338c0-3.094-2.518-5.612-5.612-5.612H284.56z"
								/>
						</g>
					</g>
				</g>
				<g>
					<g>
						<g>
							<path style="fill:#E0E0E0;" d="M257.012,332.473H76.266c-3.232,0-5.862-2.63-5.862-5.862V63.338
								c0-3.232,2.629-5.862,5.862-5.862h180.746c3.232,0,5.862,2.629,5.862,5.862v263.273
								C262.875,329.844,260.245,332.473,257.012,332.473z M76.266,57.726c-3.094,0-5.612,2.518-5.612,5.612v263.273
								c0,3.095,2.518,5.612,5.612,5.612h180.746c3.095,0,5.612-2.518,5.612-5.612V63.338c0-3.094-2.518-5.612-5.612-5.612H76.266z"
								/>
						</g>
					</g>
				</g>
			</g>
			<g>
				<g>
					<rect y="393.543" style="fill:#E0E0E0;" width="750" height="0.12"/>
				</g>
			</g>
		</g>
		<g>
			<rect x="653.626" y="422.919" style="fill:#EBEBEB;" width="55.729" height="0.421"/>
			<rect x="495.044" y="427.484" style="fill:#EBEBEB;" width="14.627" height="0.421"/>
			<rect x="40.645" y="410.121" style="fill:#EBEBEB;" width="72.674" height="0.421"/>
			<rect x="128.299" y="410.121" style="fill:#EBEBEB;" width="10.656" height="0.421"/>
			<rect x="173.586" y="417.226" style="fill:#EBEBEB;" width="157.613" height="0.421"/>
		</g>
	</g>
	<g>
		<g>
			<path style="fill:#E6E6E6;" d="M661.755,406.214c2.378-2.93,6.973-4.886,12.017-5.827c-0.396,1.443-0.099,2.774,0.754,3.101
				c0.951,0.365,2.228-0.657,2.85-2.282c0.176-0.459,0.273-0.913,0.312-1.342c5.086-0.414,10.172,0.172,13.567,1.801
				c0,0-3.323,2.996-7.088,10.872c-0.115-0.004-0.231-0.008-0.349-0.007c-2.436,0.025-4.4,1.201-4.385,2.628
				c0.01,1.042,1.076,1.927,2.598,2.32c-0.198,0.504-0.395,1.018-0.592,1.55c-3.586,9.705-13.153,2.689-13.067-3.953
				C668.373,415.075,656.428,412.781,661.755,406.214z"/>
			<g>
				<path style="fill:#E6E6E6;" d="M649.969,393.686c-2.93-3.163-8.315-5.048-14.136-5.744c0.559,1.616,0.32,3.155-0.628,3.592
					c-1.058,0.487-2.589-0.583-3.42-2.389c-0.235-0.51-0.38-1.02-0.456-1.506c-5.83-0.091-11.584,0.957-15.333,3.068
					c0,0,4.013,3.167,8.893,11.865c0.132-0.013,0.263-0.026,0.398-0.034c2.779-0.154,5.105,1.04,5.196,2.668
					c0.066,1.189-1.082,2.277-2.788,2.839c0.263,0.56,0.527,1.131,0.791,1.723c4.814,10.796,15.196,2.082,14.601-5.485
					C643.087,404.283,656.534,400.774,649.969,393.686z"/>
				<g>
					<g>
						<g>
							<path style="fill:#EBEBEB;" d="M642.854,391.316c1.244-6.073,6.459-12.405,13.098-17.6c0.517,2.403,1.958,4.118,3.449,3.948
								c1.663-0.19,2.749-2.646,2.425-5.486c-0.091-0.802-0.293-1.538-0.562-2.192c7.099-4.457,14.956-7.46,21.138-7.658
								c0,0-2.573,6.885-2.09,21.217c-0.172,0.081-0.343,0.164-0.514,0.255c-3.532,1.882-5.502,5.085-4.4,7.153
								c0.805,1.511,3.028,1.993,5.545,1.413c0.094,0.885,0.195,1.783,0.312,2.708c2.129,16.862-17.131,13.888-22.039,4.141
								C659.215,399.214,640.067,404.924,642.854,391.316z"/>
						</g>
					</g>
				</g>
				<path style="fill:none;stroke:#E0E0E0;stroke-width:0.75;stroke-miterlimit:10;" d="M656.73,429.787
					c-3.208-17.83,1.584-36.946,12.823-51.154"/>
				
					<path style="fill:none;stroke:#E0E0E0;stroke-width:0.75;stroke-linecap:round;stroke-linejoin:round;stroke-miterlimit:10;" d="
					M632.938,395.522c13.48,6.999,20.928,22.027,22.922,27.871c0,0,16.504-11.975,24.462-17.074"/>
				<g>
					<polygon style="fill:#E0E0E0;" points="676.514,435.484 635.987,435.484 636.003,428.061 676.472,428.061 					"/>
					<polygon style="fill:#E0E0E0;" points="638.923,433.063 645.255,459.405 668.573,459.405 674.22,433.063 					"/>
				</g>
			</g>
		</g>
		<path style="fill:none;stroke:#E0E0E0;stroke-width:0.5;stroke-linecap:round;stroke-linejoin:round;stroke-miterlimit:10;" d="
			M638.247,426.537c1.201,0,2.403,0,3.605,0"/>
		<path style="fill:none;stroke:#E0E0E0;stroke-width:0.5;stroke-linecap:round;stroke-linejoin:round;stroke-miterlimit:10;" d="
			M643.508,426.537c3.289,0,6.577,0,9.866,0"/>
	</g>
	<g>
		<g>
			<path style="fill:#E6E6E6;" d="M103.618,411.479c-2.378-2.93-6.973-4.886-12.017-5.827c0.396,1.443,0.099,2.774-0.754,3.101
				c-0.951,0.365-2.228-0.657-2.85-2.282c-0.176-0.459-0.273-0.913-0.312-1.342c-5.086-0.413-10.173,0.172-13.567,1.801
				c0,0,3.324,2.996,7.088,10.872c0.115-0.004,0.231-0.008,0.349-0.007c2.436,0.025,4.399,1.201,4.385,2.628
				c-0.01,1.042-1.076,1.927-2.598,2.32c0.198,0.505,0.395,1.018,0.592,1.55c3.586,9.705,13.153,2.689,13.066-3.953
				C97,420.34,108.946,418.046,103.618,411.479z"/>
			<g>
				<path style="fill:#E6E6E6;" d="M115.404,398.951c2.93-3.163,8.315-5.048,14.136-5.744c-0.559,1.616-0.32,3.155,0.628,3.592
					c1.058,0.487,2.589-0.582,3.421-2.388c0.235-0.51,0.38-1.02,0.456-1.506c5.83-0.091,11.584,0.957,15.332,3.068
					c0,0-4.013,3.167-8.894,11.865c-0.132-0.013-0.263-0.026-0.398-0.034c-2.779-0.154-5.105,1.04-5.196,2.668
					c-0.066,1.189,1.082,2.277,2.788,2.839c-0.263,0.56-0.527,1.13-0.791,1.723c-4.814,10.796-15.196,2.082-14.601-5.485
					C122.286,409.548,108.839,406.039,115.404,398.951z"/>
				<g>
					<g>
						<g>
							<path style="fill:#EBEBEB;" d="M122.519,396.581c-1.244-6.073-6.459-12.405-13.098-17.6
								c-0.517,2.403-1.958,4.118-3.449,3.948c-1.663-0.19-2.749-2.646-2.425-5.487c0.091-0.802,0.294-1.537,0.562-2.192
								c-7.099-4.457-14.956-7.459-21.138-7.658c0,0,2.573,6.885,2.09,21.217c0.172,0.081,0.343,0.164,0.514,0.255
								c3.532,1.882,5.502,5.085,4.4,7.153c-0.805,1.511-3.028,1.993-5.545,1.413c-0.094,0.885-0.195,1.783-0.312,2.708
								c-2.129,16.862,17.131,13.888,22.039,4.141C106.158,404.479,125.306,410.189,122.519,396.581z"/>
						</g>
					</g>
				</g>
				<path style="fill:none;stroke:#E0E0E0;stroke-width:0.75;stroke-miterlimit:10;" d="M108.643,435.052
					c3.208-17.83-1.584-36.946-12.823-51.154"/>
				
					<path style="fill:none;stroke:#E0E0E0;stroke-width:0.75;stroke-linecap:round;stroke-linejoin:round;stroke-miterlimit:10;" d="
					M132.435,400.787c-13.48,6.999-20.928,22.027-22.922,27.871c0,0-16.505-11.975-24.462-17.074"/>
				<g>
					<polygon style="fill:#E0E0E0;" points="88.859,440.749 129.386,440.749 129.371,433.326 88.901,433.326 					"/>
					<polygon style="fill:#E0E0E0;" points="126.451,438.328 120.118,464.67 96.8,464.67 91.154,438.328 					"/>
				</g>
			</g>
		</g>
		<path style="fill:none;stroke:#E0E0E0;stroke-width:0.5;stroke-linecap:round;stroke-linejoin:round;stroke-miterlimit:10;" d="
			M127.127,431.802c-1.202,0-2.403,0-3.605,0"/>
		<path style="fill:none;stroke:#E0E0E0;stroke-width:0.5;stroke-linecap:round;stroke-linejoin:round;stroke-miterlimit:10;" d="
			M121.865,431.802c-3.289,0-6.577,0-9.866,0"/>
	</g>
	<path style="fill:#F5F5F5;" d="M109.241,247.189c-2.202,3.353-3.682,7.036-4.471,10.834l-6.05,0.57l-0.001,11.717l6.051,0.57
		c0.788,3.798,2.269,7.481,4.471,10.835l-3.865,4.668l8.285,8.285l4.668-3.864c3.354,2.202,7.036,3.683,10.835,4.471l0.57,6.051
		l11.717-0.001l0.57-6.05c3.799-0.789,7.482-2.27,10.835-4.471l4.668,3.864l8.285-8.285l-3.864-4.668
		c2.201-3.354,3.682-7.036,4.471-10.835l6.05-0.57l0.001-11.717l-6.05-0.57c-0.789-3.798-2.27-7.481-4.472-10.834l3.864-4.668
		l-8.285-8.285l-4.667,3.864c-3.354-2.202-7.037-3.683-10.835-4.472l-0.57-6.05l-11.717,0.001l-0.57,6.05
		c-3.798,0.789-7.481,2.269-10.834,4.471l-4.668-3.865l-8.285,8.286L109.241,247.189z M146.809,253.236
		c6.194,6.194,6.194,16.238,0,22.432c-6.195,6.195-16.239,6.194-22.433,0c-6.195-6.194-6.194-16.237,0-22.432
		C130.571,247.042,140.614,247.041,146.809,253.236z"/>
	<path style="fill:#F5F5F5;" d="M270.905,391.559c-0.974,1.483-1.628,3.111-1.977,4.791l-2.676,0.252l0,5.181l2.676,0.252
		c0.349,1.679,1.004,3.308,1.977,4.791l-1.709,2.064l3.664,3.664l2.064-1.709c1.483,0.974,3.111,1.629,4.791,1.977l0.252,2.676
		l5.181,0l0.252-2.675c1.68-0.349,3.308-1.004,4.791-1.977l2.064,1.709l3.664-3.664l-1.709-2.064
		c0.973-1.483,1.628-3.111,1.977-4.791l2.675-0.252l0-5.181l-2.675-0.252c-0.349-1.679-1.004-3.308-1.977-4.791l1.709-2.064
		l-3.664-3.664l-2.064,1.709c-1.483-0.973-3.112-1.629-4.791-1.977l-0.252-2.676l-5.181,0l-0.252,2.675
		c-1.68,0.349-3.308,1.003-4.791,1.977l-2.064-1.709l-3.664,3.664L270.905,391.559z M287.517,394.233
		c2.739,2.739,2.739,7.18,0,9.919c-2.739,2.739-7.18,2.739-9.919,0c-2.739-2.739-2.739-7.18,0-9.919
		C280.337,391.494,284.778,391.494,287.517,394.233z"/>
	<path style="fill:#F5F5F5;" d="M460.956,355.638c-0.853,1.299-1.427,2.727-1.733,4.199l-2.345,0.221l0,4.541l2.345,0.221
		c0.306,1.472,0.88,2.899,1.733,4.199l-1.498,1.809l3.211,3.211l1.809-1.498c1.3,0.853,2.727,1.427,4.199,1.733l0.221,2.345l4.541,0
		l0.221-2.345c1.472-0.306,2.9-0.879,4.199-1.733l1.809,1.498l3.211-3.211l-1.498-1.809c0.853-1.3,1.427-2.727,1.733-4.199
		l2.345-0.221l0-4.541l-2.345-0.221c-0.306-1.472-0.88-2.899-1.733-4.199l1.498-1.809l-3.211-3.211l-1.809,1.498
		c-1.3-0.853-2.727-1.427-4.199-1.733l-0.221-2.345l-4.541,0l-0.221,2.345c-1.472,0.306-2.899,0.879-4.199,1.733l-1.809-1.498
		l-3.211,3.211L460.956,355.638z M475.515,357.981c2.4,2.401,2.401,6.293,0,8.694c-2.401,2.401-6.293,2.401-8.694,0
		c-2.401-2.401-2.4-6.293,0-8.694C469.223,355.581,473.115,355.581,475.515,357.981z"/>
	<path style="fill:#F5F5F5;" d="M622.028,332.196c-0.853,1.299-1.427,2.727-1.733,4.199l-2.345,0.221l0,4.541l2.345,0.221
		c0.306,1.472,0.88,2.899,1.733,4.199l-1.498,1.809l3.211,3.211l1.809-1.498c1.3,0.853,2.727,1.427,4.199,1.733l0.221,2.345l4.541,0
		l0.221-2.345c1.472-0.306,2.899-0.88,4.199-1.733l1.809,1.498l3.211-3.211l-1.498-1.809c0.853-1.3,1.427-2.727,1.733-4.199
		l2.345-0.221l0-4.541l-2.345-0.221c-0.306-1.472-0.88-2.899-1.733-4.199l1.498-1.809l-3.211-3.211l-1.809,1.498
		c-1.3-0.853-2.727-1.428-4.199-1.733l-0.221-2.345l-4.541,0l-0.221,2.345c-1.472,0.306-2.899,0.879-4.199,1.733l-1.809-1.498
		l-3.211,3.211L622.028,332.196z M636.587,334.539c2.4,2.401,2.401,6.293,0,8.694c-2.401,2.401-6.293,2.401-8.694,0
		c-2.401-2.401-2.401-6.293,0-8.694C630.294,332.139,634.186,332.139,636.587,334.539z"/>
	<path style="fill:#E0E0E0;" d="M350.989,84.533c-2.791,3.929-4.731,8.287-5.845,12.814l-7.29,0.419l-0.515,14.07l7.241,0.95
		c0.78,4.595,2.397,9.083,4.893,13.206l-4.845,5.435l9.586,10.313l5.774-4.435c3.93,2.791,8.287,4.731,12.814,5.844l0.418,7.291
		l14.07,0.513l0.95-7.239c4.596-0.781,9.083-2.397,13.207-4.894l5.435,4.845l10.313-9.585l-4.435-5.775
		c2.79-3.93,4.73-8.287,5.844-12.814l7.289-0.419l0.515-14.07l-7.24-0.95c-0.78-4.595-2.398-9.082-4.894-13.205l4.845-5.436
		l-9.585-10.312l-5.774,4.435c-3.931-2.791-8.288-4.732-12.814-5.845l-0.419-7.291l-14.07-0.513l-0.949,7.24
		c-4.595,0.781-9.082,2.396-13.206,4.893l-5.435-4.845l-10.313,9.586L350.989,84.533z M395.835,93.443
		c7.165,7.71,6.725,19.77-0.984,26.936c-7.711,7.167-19.771,6.726-26.937-0.984c-7.166-7.71-6.725-19.769,0.985-26.937
		C376.608,85.293,388.668,85.733,395.835,93.443z"/>
	<path style="fill:#E0E0E0;" d="M245.893,326.275c-2.026,3.085-3.388,6.473-4.114,9.968l-5.566,0.524l-0.001,10.78l5.567,0.524
		c0.725,3.494,2.088,6.882,4.113,9.968l-3.555,4.294l7.623,7.622l4.294-3.555c3.085,2.026,6.473,3.388,9.967,4.113l0.524,5.567
		l10.779-0.001l0.525-5.566c3.495-0.726,6.883-2.088,9.968-4.114l4.294,3.555l7.623-7.622l-3.555-4.294
		c2.025-3.085,3.388-6.473,4.113-9.967l5.566-0.524l0.001-10.78l-5.566-0.525c-0.725-3.494-2.089-6.882-4.114-9.967l3.555-4.294
		l-7.622-7.622l-4.294,3.555c-3.086-2.026-6.474-3.389-9.967-4.114l-0.525-5.566l-10.78,0.001l-0.524,5.566
		c-3.494,0.726-6.882,2.088-9.967,4.113l-4.294-3.555l-7.623,7.623L245.893,326.275z M280.455,331.838
		c5.698,5.699,5.699,14.939,0,20.637c-5.699,5.699-14.939,5.699-20.638,0c-5.699-5.699-5.698-14.938,0-20.638
		C265.517,326.139,274.756,326.139,280.455,331.838z"/>
	<path style="fill:#F5F5F5;" d="M267.084,90.433c-1.388,2.113-2.321,4.435-2.818,6.829l-3.814,0.359l0,7.385l3.814,0.359
		c0.497,2.394,1.43,4.715,2.818,6.829l-2.436,2.942l5.223,5.222l2.942-2.436c2.114,1.388,4.435,2.321,6.829,2.818l0.359,3.814
		l7.385,0l0.359-3.813c2.394-0.497,4.716-1.431,6.83-2.818l2.942,2.436l5.223-5.222l-2.436-2.942
		c1.387-2.114,2.321-4.435,2.818-6.829l3.813-0.359l0.001-7.385l-3.813-0.359c-0.497-2.394-1.431-4.715-2.819-6.829l2.436-2.942
		l-5.222-5.222l-2.942,2.436c-2.114-1.388-4.436-2.322-6.829-2.819l-0.359-3.814l-7.385,0l-0.359,3.814
		c-2.394,0.497-4.715,1.43-6.829,2.818l-2.942-2.436l-5.223,5.223L267.084,90.433z M290.764,94.245
		c3.904,3.905,3.904,10.235,0,14.14c-3.905,3.905-10.236,3.904-14.14,0c-3.905-3.904-3.904-10.235,0-14.14
		C280.529,90.341,286.859,90.34,290.764,94.245z"/>
	<g>
		
			<rect x="503.451" y="81.523" transform="matrix(0.9992 0.041 -0.041 0.9992 5.6248 -23.0729)" style="fill:#E0E0E0;" width="122.795" height="87.91"/>
		
			<rect x="508.249" y="84.958" transform="matrix(0.9992 0.041 -0.041 0.9992 5.6248 -23.0728)" style="fill:#F5F5F5;" width="113.201" height="81.042"/>
		<path style="fill:#EBEBEB;" d="M506.633,163.643l0.501-12.21c7.487-11.816,25.586-27.818,31.468-27.838
			c9.763-0.033,24.226,18.156,24.226,18.156s26.733-26.248,33.287-27.364c10.444-1.779,24.802,25.205,24.802,25.205l-1.178,28.695
			L506.633,163.643z"/>
		<path style="fill:#EBEBEB;" d="M572.979,111.207c-0.678,5.461-5.655,9.339-11.116,8.66c-5.461-0.678-9.339-5.655-8.66-11.116
			c0.678-5.461,5.655-9.339,11.116-8.66C569.779,100.769,573.657,105.746,572.979,111.207z"/>
	</g>
	<g>
		
			<rect x="598.931" y="253.486" transform="matrix(0.9862 -0.1657 0.1657 0.9862 -37.5922 109.237)" style="fill:#E0E0E0;" width="73.773" height="52.815"/>
		
			<rect x="601.813" y="255.55" transform="matrix(0.9862 -0.1657 0.1657 0.9862 -37.5922 109.2369)" style="fill:#FAFAFA;" width="68.009" height="48.688"/>
		<path style="fill:#EBEBEB;" d="M606.318,309.537l-1.217-7.24c2.939-7.873,11.598-19.521,15.054-20.261
			c5.735-1.228,16.49,7.675,16.49,7.675s12.467-18.74,16.182-20.208c5.92-2.339,17.701,11.747,17.701,11.747l2.859,17.016
			L606.318,309.537z"/>
		<path style="fill:#EBEBEB;" d="M638.83,270.497c0.277,3.294-2.168,6.19-5.463,6.467s-6.19-2.168-6.468-5.463
			c-0.277-3.295,2.169-6.19,5.463-6.468C635.657,264.757,638.553,267.203,638.83,270.497z"/>
	</g>
	<g>
		
			<rect x="120.854" y="314.147" transform="matrix(0.9892 -0.1463 0.1463 0.9892 -47.5675 25.8233)" style="fill:#E0E0E0;" width="61.816" height="44.255"/>
		
			<rect x="123.269" y="315.876" transform="matrix(0.9892 -0.1463 0.1463 0.9892 -47.5672 25.8231)" style="fill:#FAFAFA;" width="56.986" height="40.797"/>
		<path style="fill:#EBEBEB;" d="M126.56,360.622l-0.9-6.085c2.592-6.547,10.038-16.163,12.945-16.726
			c4.825-0.934,13.688,6.701,13.688,6.701s10.753-15.494,13.889-16.663c4.998-1.862,14.636,10.133,14.636,10.133l2.115,14.302
			L126.56,360.622z"/>
		<path style="fill:#EBEBEB;" d="M154.441,328.452c0.178,2.765-1.919,5.15-4.683,5.328c-2.765,0.178-5.15-1.919-5.328-4.683
			c-0.178-2.765,1.919-5.15,4.683-5.328S154.262,325.688,154.441,328.452z"/>
	</g>
	<path style="fill:#F5F5F5;" d="M638.319,146.006c-1.046,1.592-1.749,3.342-2.124,5.146l-2.874,0.271l0,5.565l2.874,0.271
		c0.374,1.804,1.078,3.553,2.124,5.146l-1.836,2.217l3.935,3.935l2.217-1.835c1.593,1.046,3.342,1.749,5.146,2.124l0.271,2.874
		l5.565,0l0.271-2.873c1.804-0.375,3.554-1.078,5.146-2.124l2.217,1.835l3.935-3.935l-1.835-2.217
		c1.045-1.593,1.749-3.342,2.123-5.146l2.873-0.271l0-5.565l-2.874-0.271c-0.375-1.804-1.078-3.553-2.124-5.146l1.835-2.217
		l-3.935-3.935l-2.217,1.835c-1.593-1.046-3.342-1.75-5.146-2.124l-0.271-2.874l-5.565,0l-0.271,2.874
		c-1.804,0.375-3.553,1.078-5.146,2.124l-2.217-1.836l-3.935,3.936L638.319,146.006z M656.163,148.878
		c2.942,2.942,2.942,7.713,0,10.655c-2.943,2.942-7.713,2.942-10.655,0c-2.942-2.942-2.942-7.712,0-10.655
		C648.45,145.936,653.221,145.936,656.163,148.878z"/>
	<path style="fill:#F5F5F5;" d="M541.155,201.581c-1.776,2.704-2.969,5.674-3.606,8.737l-4.879,0.459l-0.001,9.448l4.88,0.46
		c0.635,3.063,1.83,6.033,3.605,8.737l-3.116,3.764l6.681,6.681l3.764-3.116c2.704,1.775,5.674,2.97,8.737,3.605l0.46,4.879
		l9.448-0.001l0.46-4.878c3.063-0.636,6.033-1.83,8.737-3.606l3.764,3.116l6.681-6.681l-3.116-3.764
		c1.775-2.704,2.969-5.674,3.605-8.737l4.878-0.46l0.001-9.448l-4.879-0.46c-0.636-3.063-1.831-6.032-3.606-8.736l3.116-3.764
		l-6.681-6.681l-3.764,3.116c-2.705-1.775-5.675-2.97-8.737-3.606l-0.46-4.879l-9.449,0l-0.46,4.879
		c-3.063,0.636-6.032,1.83-8.737,3.605l-3.764-3.116l-6.681,6.682L541.155,201.581z M571.449,206.457
		c4.995,4.995,4.995,13.094,0,18.089c-4.996,4.995-13.095,4.995-18.089,0c-4.995-4.995-4.995-13.094,0-18.089
		C558.355,201.462,566.453,201.462,571.449,206.457z"/>
	<path style="fill:#E0E0E0;" d="M91.696,202.483c-1.046,1.592-1.749,3.342-2.124,5.146l-2.874,0.271l0,5.565l2.874,0.271
		c0.374,1.804,1.078,3.553,2.124,5.146l-1.836,2.217l3.935,3.935l2.217-1.835c1.593,1.046,3.342,1.749,5.146,2.124l0.271,2.874
		l5.565,0l0.271-2.874c1.804-0.375,3.554-1.078,5.146-2.124l2.217,1.835l3.935-3.935l-1.835-2.217
		c1.046-1.593,1.749-3.342,2.123-5.146l2.873-0.271l0-5.565l-2.874-0.271c-0.375-1.804-1.078-3.553-2.124-5.146l1.835-2.217
		l-3.935-3.935l-2.217,1.835c-1.593-1.046-3.342-1.75-5.146-2.124l-0.271-2.874l-5.565,0l-0.271,2.874
		c-1.804,0.375-3.553,1.078-5.146,2.124l-2.217-1.836l-3.935,3.936L91.696,202.483z M109.54,205.355
		c2.942,2.942,2.942,7.713,0,10.655c-2.942,2.942-7.713,2.942-10.655,0c-2.942-2.942-2.942-7.713,0-10.655
		C101.828,202.414,106.598,202.413,109.54,205.355z"/>
	<path style="fill:#E0E0E0;" d="M306.146,54.692c-1.298,1.977-2.171,4.148-2.636,6.387l-3.567,0.336l0,6.908l3.567,0.336
		c0.465,2.239,1.338,4.41,2.636,6.387l-2.278,2.752l4.885,4.884l2.752-2.278c1.977,1.298,4.148,2.171,6.387,2.636l0.336,3.567
		l6.908,0l0.336-3.567c2.239-0.465,4.411-1.338,6.388-2.636l2.751,2.278l4.885-4.884l-2.278-2.752
		c1.298-1.977,2.171-4.148,2.636-6.387l3.566-0.336l0.001-6.908l-3.567-0.336c-0.465-2.239-1.338-4.41-2.636-6.387l2.278-2.752
		l-4.884-4.884l-2.752,2.278c-1.977-1.298-4.148-2.171-6.387-2.636l-0.336-3.567l-6.908,0l-0.336,3.567
		c-2.239,0.465-4.41,1.338-6.387,2.636l-2.752-2.278l-4.885,4.885L306.146,54.692z M328.294,58.257
		c3.651,3.652,3.652,9.573,0,13.225c-3.652,3.652-9.573,3.652-13.225,0c-3.652-3.652-3.652-9.572,0-13.225
		C318.721,54.605,324.642,54.605,328.294,58.257z"/>
</g>
<g id="Background_simple" style="display:none;">
	<g style="display:inline;">
		<path style="fill:#407BFF;" d="M277.374,176.658c-35.165,2.847-69.075,8.907-99.149,18.413
			c-35.446,11.204-71.663,28.659-60.966,51.49c19.749,42.149,114.487,42.917,95.572,71.257
			c-21.426,32.102-7.057,69.757,89.087,80.228c182.612,19.889,403.362-96.484,341.361-160.43
			C604.678,197.806,464.093,161.544,277.374,176.658z"/>
		<path style="opacity:0.9;fill:#FFFFFF;" d="M277.374,176.658c-35.165,2.847-69.075,8.907-99.149,18.413
			c-35.446,11.204-71.663,28.659-60.966,51.49c19.749,42.149,114.487,42.917,95.572,71.257
			c-21.426,32.102-7.057,69.757,89.087,80.228c182.612,19.889,403.362-96.484,341.361-160.43
			C604.678,197.806,464.093,161.544,277.374,176.658z"/>
	</g>
</g>
<g id="Shadow">
	<g>
		<g>
			<path style="fill:#F5F5F5;" d="M689.614,469.03c0,3.387-136.317,6.132-304.472,6.132s-304.472-2.746-304.472-6.132
				c0-3.387,136.317-6.132,304.472-6.132S689.614,465.643,689.614,469.03z"/>
		</g>
	</g>
</g>
<g id="Screen">
	<g>
		<g>
			<path style="fill:#407BFF;" d="M536.912,336.005H229.772c-8.563,0-15.505-6.942-15.505-15.505V112.547
				c0-8.563,6.942-15.505,15.505-15.505h307.141c8.563,0,15.505,6.942,15.505,15.505V320.5
				C552.417,329.063,545.475,336.005,536.912,336.005z"/>
			<path style="opacity:0.8;fill:#FFFFFF;" d="M536.912,336.069H229.772c-8.563,0-15.505-6.942-15.505-15.505V112.611
				c0-8.563,6.942-15.505,15.505-15.505h307.141c8.563,0,15.505,6.942,15.505,15.505v207.953
				C552.417,329.128,545.475,336.069,536.912,336.069z"/>
			<path style="fill:#407BFF;" d="M552.417,127.104H214.266v-14.364c0-8.67,7.028-15.698,15.698-15.698h307.033
				c8.516,0,15.42,6.904,15.42,15.42V127.104z"/>
			<g>
				<circle style="fill:#FFFFFF;" cx="236.318" cy="112.757" r="4.741"/>
				<circle style="fill:#FFFFFF;" cx="247.761" cy="112.757" r="4.741"/>
				<path style="fill:#FFFFFF;" d="M264.292,112.757c0,2.619-2.123,4.741-4.741,4.741c-2.619,0-4.741-2.123-4.741-4.741
					s2.123-4.741,4.741-4.741C262.169,108.015,264.292,110.138,264.292,112.757z"/>
			</g>
		</g>
		<g>
			<g>
				<path style="fill:#407BFF;" d="M350.813,240.63H244.18c-1.89,0-3.422-1.532-3.422-3.422v-92.11c0-1.89,1.532-3.422,3.422-3.422
					h106.632c1.89,0,3.422,1.532,3.422,3.422v92.11C354.234,239.098,352.703,240.63,350.813,240.63z"/>
				<path style="opacity:0.2;" d="M240.759,224.71l29.377-28.857c2.737-2.689,6.895-3.309,10.298-1.536l23.315,12.151l20.74-22.509
					c3.639-3.95,9.748-4.32,13.838-0.838l15.907,13.544v37.708c-0.482,3.497-4.411,6.256-6.776,6.256h-99.445
					C238.621,240.63,240.322,227.227,240.759,224.71z"/>
				<path style="opacity:0.2;" d="M316.609,169.759c0,6.773-5.364,12.263-11.98,12.263c-6.616,0-11.98-5.49-11.98-12.263
					c0-6.773,5.364-12.264,11.98-12.264C311.245,157.496,316.609,162.986,316.609,169.759z"/>
			</g>
		</g>
		<g>
			<g>
				
					<rect x="244.663" y="253.834" style="fill:none;stroke:#407BFF;stroke-width:0.5;stroke-miterlimit:10;" width="109.571" height="8.647"/>
				
					<rect x="244.663" y="270.011" style="fill:none;stroke:#407BFF;stroke-width:0.5;stroke-miterlimit:10;" width="109.571" height="8.647"/>
			</g>
			<g>
				
					<rect x="244.663" y="285.881" style="fill:none;stroke:#407BFF;stroke-width:0.5;stroke-miterlimit:10;" width="109.571" height="8.647"/>
				
					<rect x="244.663" y="302.058" style="fill:none;stroke:#407BFF;stroke-width:0.5;stroke-miterlimit:10;" width="109.571" height="8.647"/>
			</g>
		</g>
		<g>
			<g>
				<g>
					<path style="fill:none;stroke:#407BFF;stroke-width:0.5;stroke-miterlimit:10;" d="M450.838,194.749h-48.497
						c-1.89,0-3.422-1.532-3.422-3.422v-41.415c0-1.89,1.532-3.422,3.422-3.422h48.497c1.89,0,3.422,1.532,3.422,3.422v41.415
						C454.26,193.217,452.728,194.749,450.838,194.749z"/>
					<path style="fill:none;stroke:#407BFF;stroke-width:0.5;stroke-miterlimit:10;" d="M398.919,186.985l14.327-14.073
						c1.335-1.311,3.363-1.614,5.022-0.749l11.37,5.926l10.115-10.977c1.775-1.926,4.754-2.107,6.749-0.409l7.758,6.605v18.39
						c-0.235,1.705-2.151,3.051-3.305,3.051h-48.498C397.877,194.749,398.706,188.212,398.919,186.985z"/>
					<path style="fill:none;stroke:#407BFF;stroke-width:0.5;stroke-miterlimit:10;" d="M433.256,160.186
						c0,3.303-2.616,5.98-5.843,5.98c-3.226,0-5.842-2.677-5.842-5.98c0-3.303,2.616-5.981,5.842-5.981
						C430.64,154.205,433.256,156.883,433.256,160.186z"/>
				</g>
			</g>
			
				<rect x="401.056" y="201.464" style="fill:none;stroke:#407BFF;stroke-width:0.5;stroke-miterlimit:10;" width="30.834" height="6.655"/>
			
				<rect x="401.056" y="218.069" style="fill:none;stroke:#407BFF;stroke-width:0.5;stroke-miterlimit:10;" width="55.171" height="6.655"/>
			
				<rect x="401.056" y="230.477" style="fill:none;stroke:#407BFF;stroke-width:0.5;stroke-miterlimit:10;" width="55.171" height="6.655"/>
			
				<rect x="401.056" y="243.492" style="fill:none;stroke:#407BFF;stroke-width:0.5;stroke-miterlimit:10;" width="32.164" height="6.655"/>
		</g>
		<g>
			<g>
				<g>
					<path style="fill:none;stroke:#407BFF;stroke-width:0.5;stroke-miterlimit:10;" d="M523.828,194.749h-48.497
						c-1.89,0-3.422-1.532-3.422-3.422v-41.415c0-1.89,1.532-3.422,3.422-3.422h48.497c1.89,0,3.422,1.532,3.422,3.422v41.415
						C527.25,193.217,525.718,194.749,523.828,194.749z"/>
					<path style="fill:none;stroke:#407BFF;stroke-width:0.5;stroke-miterlimit:10;" d="M471.909,186.985l14.327-14.073
						c1.335-1.311,3.363-1.614,5.022-0.749l11.371,5.926l10.115-10.977c1.775-1.926,4.754-2.107,6.748-0.409l7.758,6.605v18.39
						c-0.235,1.705-2.151,3.051-3.305,3.051h-48.498C470.866,194.749,471.696,188.212,471.909,186.985z"/>
					<path style="fill:none;stroke:#407BFF;stroke-width:0.5;stroke-miterlimit:10;" d="M506.246,160.186
						c0,3.303-2.616,5.98-5.842,5.98c-3.227,0-5.842-2.677-5.842-5.98c0-3.303,2.616-5.981,5.842-5.981
						C503.63,154.205,506.246,156.883,506.246,160.186z"/>
				</g>
			</g>
			
				<rect x="474.045" y="201.464" style="fill:none;stroke:#407BFF;stroke-width:0.5;stroke-miterlimit:10;" width="30.834" height="6.655"/>
			
				<rect x="474.045" y="218.069" style="fill:none;stroke:#407BFF;stroke-width:0.5;stroke-miterlimit:10;" width="55.171" height="6.655"/>
			
				<rect x="474.045" y="230.477" style="fill:none;stroke:#407BFF;stroke-width:0.5;stroke-miterlimit:10;" width="55.171" height="6.655"/>
			
				<rect x="474.045" y="243.492" style="fill:none;stroke:#407BFF;stroke-width:0.5;stroke-miterlimit:10;" width="32.164" height="6.655"/>
		</g>
		
			<rect x="397.635" y="268.801" style="fill:none;stroke:#407BFF;stroke-width:0.5;stroke-miterlimit:10;" width="131.581" height="6.508"/>
		
			<rect x="397.635" y="279.894" style="fill:none;stroke:#407BFF;stroke-width:0.5;stroke-miterlimit:10;" width="131.581" height="35.778"/>
	</g>
</g>
<g id="Plant">
	<g>
		<g>
			<g>
				<path style="fill:#407BFF;" d="M440.333,331.754c-13.958,16.327-18.035,40.495-10.205,60.497
					c8.7-7.765,14.826-19.6,15.214-29.952C445.73,351.947,443.02,341.758,440.333,331.754z"/>
			</g>
			<g>
				<path style="fill:#407BFF;" d="M437.898,394.138c-4.736,7.257-7.003,16.094-6.345,24.735
					c7.546-2.627,14.198-11.15,18.186-18.074c3.988-6.923,6.218-14.7,8.247-22.427C449.811,381.248,442.634,386.881,437.898,394.138
					z"/>
			</g>
			<g>
				<g>
					<path style="fill:#263238;" d="M436.072,360.243c-5.604,20.157-8.465,41.058-8.45,61.981
						c0.004,5.956,0.247,11.909,0.711,17.847c0.037,0.478,0.788,0.482,0.75,0c-1.631-20.873-0.421-41.942,3.634-62.484
						c1.138-5.765,2.504-11.483,4.078-17.144C436.925,359.977,436.202,359.778,436.072,360.243L436.072,360.243z"/>
				</g>
			</g>
			<g>
				<g>
					<path style="fill:#263238;" d="M428.663,425.723c5.73-13.63,13.257-26.394,21.956-38.332c0.284-0.391-0.366-0.765-0.648-0.379
						c-8.741,11.996-16.274,24.817-22.032,38.512C427.753,425.968,428.479,426.162,428.663,425.723L428.663,425.723z"/>
				</g>
			</g>
			<g>
				<path style="fill:#407BFF;" d="M420.454,405.445c3.949,6.051,5.84,13.42,5.291,20.625c-6.292-2.19-11.838-9.297-15.164-15.07
					c-3.326-5.773-5.185-12.257-6.876-18.701C410.521,394.698,416.505,399.395,420.454,405.445z"/>
			</g>
			<g>
				<g>
					<path style="fill:#263238;" d="M428.493,430.822c-4.707-11.187-10.914-21.553-18.052-31.35
						c-0.281-0.386-0.932-0.012-0.648,0.379c7.096,9.739,13.297,20.048,17.977,31.17
						C427.954,431.459,428.68,431.267,428.493,430.822L428.493,430.822z"/>
				</g>
			</g>
			<g>
				<g>
					<path style="fill:#263238;" d="M428.69,434.62c8.879-9.134,17.944-18.086,26.824-27.22c0.337-0.346-0.193-0.877-0.53-0.53
						c-8.879,9.134-17.944,18.086-26.824,27.22C427.823,434.436,428.353,434.967,428.69,434.62L428.69,434.62z"/>
				</g>
			</g>
			<g>
				<path style="fill:#407BFF;" d="M455.786,403.141c-7.703,7.429-14.722,15.568-20.937,24.28l1.41,0
					c5.863-0.275,11.555-3.167,15.233-7.741C455.17,415.106,456.775,408.927,455.786,403.141z"/>
			</g>
			<g>
				<g>
					<g>
						<path style="fill:#263238;" d="M419.245,385.468c3.307,5.409,6.424,10.933,9.344,16.561c0.222,0.429,0.87,0.05,0.648-0.379
							c-2.92-5.628-6.036-11.151-9.344-16.561C419.641,384.679,418.993,385.055,419.245,385.468L419.245,385.468z"/>
					</g>
				</g>
				<g>
					<path style="fill:#407BFF;" d="M411.345,358.113c-1.261,5.674-2.512,13.052-2.525,18.96c-0.013,5.908,1.79,11.673,5.147,15.632
						c3.357,3.959,10.135,5.693,12.867,3.428L411.345,358.113z"/>
				</g>
			</g>
		</g>
		<rect x="411.172" y="437.196" style="fill:#263238;" width="33.651" height="6.236"/>
		<polygon style="fill:#263238;" points="439.373,465.65 418.477,465.65 414.68,442.003 442.373,442.003 		"/>
		<polygon style="opacity:0.2;" points="414.928,443.548 442.177,443.548 441.837,446.225 415.358,446.225 		"/>
	</g>
</g>
<g id="Speech_Bubble_3">
	<g>
		<g>
			<g>
				<path style="fill:#407BFF;" d="M637.015,219.377c7.815-8.733,7.072-22.148-1.661-29.964c-8.733-7.816-22.148-7.072-29.964,1.661
					c-6.034,6.742-6.944,16.266-3.037,23.858l-2.285,5.95l6.733-0.092c0.087,0.08,0.162,0.168,0.25,0.248
					C615.784,228.854,629.199,228.11,637.015,219.377z"/>
			</g>
			<path style="fill:none;stroke:#407BFF;stroke-width:0.5;stroke-linecap:round;stroke-linejoin:round;stroke-miterlimit:10;" d="
				M633.193,184.129c6.171,3.085,10.58,9.448,11.301,16.309"/>
			<path style="fill:none;stroke:#407BFF;stroke-width:0.5;stroke-linecap:round;stroke-linejoin:round;stroke-miterlimit:10;" d="
				M644.713,203.597c0.187,1.035,0.158,2.11-0.086,3.133"/>
		</g>
		<g>
			<polygon style="fill:#FFFFFF;" points="620.784,214.262 611.057,207.019 613.585,203.626 620.107,208.482 629.068,197.792 
				632.31,200.51 			"/>
		</g>
	</g>
</g>
<g id="Speech_Bubble_2">
	<path style="opacity:0.3;" d="M446.365,131.512c-5.263-9.393-17.069-12.455-26.369-6.84c-9.3,5.616-12.573,17.783-7.309,27.176
		c0.053,0.095,0.117,0.179,0.172,0.273l-1.392,6.157l5.745-1.039c6.003,4.929,14.665,5.784,21.844,1.449
		C448.356,153.073,451.628,140.906,446.365,131.512z"/>
	<g>
		<g>
			<g>
				<g>
					<path style="fill:#FFFFFF;" d="M441.848,127.148c5.263,9.393,1.991,21.56-7.309,27.176c-7.18,4.336-15.841,3.48-21.844-1.449
						l-5.745,1.039l1.392-6.157c-0.055-0.094-0.119-0.178-0.172-0.273c-5.263-9.393-1.991-21.56,7.309-27.176
						C424.779,114.693,436.585,117.755,441.848,127.148z"/>
				</g>
			</g>
		</g>
		<path style="fill:#407BFF;" d="M420.263,136.886c0,1.427-1.197,2.584-2.673,2.584c-1.476,0-2.673-1.157-2.673-2.584
			c0-1.427,1.197-2.584,2.673-2.584C419.066,134.302,420.263,135.459,420.263,136.886z"/>
		<path style="fill:#407BFF;" d="M428.447,136.886c0,1.427-1.197,2.584-2.673,2.584c-1.476,0-2.673-1.157-2.673-2.584
			c0-1.427,1.197-2.584,2.673-2.584C427.25,134.302,428.447,135.459,428.447,136.886z"/>
		<path style="fill:#407BFF;" d="M436.631,136.886c0,1.427-1.197,2.584-2.673,2.584s-2.673-1.157-2.673-2.584
			c0-1.427,1.197-2.584,2.673-2.584S436.631,135.459,436.631,136.886z"/>
	</g>
</g>
<g id="Speech_Bubble_1">
	<g>
		<g>
			<path style="fill:#407BFF;" d="M136.852,171.104c0.704,0.528,15.239,15.239,15.239,15.239v-15.239H136.852z"/>
			<path style="opacity:0.8;fill:#FFFFFF;" d="M136.852,171.104c0.704,0.528,15.239,15.239,15.239,15.239v-15.239H136.852z"/>
			<path style="fill:#407BFF;" d="M186.402,172.881h-86.345c-3.989,0-7.223-3.234-7.223-7.223V86.36
				c0-3.989,3.234-7.223,7.223-7.223h86.345c3.989,0,7.223,3.234,7.223,7.223v79.297
				C193.625,169.647,190.391,172.881,186.402,172.881z"/>
			<path style="opacity:0.8;fill:#FFFFFF;" d="M186.402,172.881h-86.345c-3.989,0-7.223-3.234-7.223-7.223V86.36
				c0-3.989,3.234-7.223,7.223-7.223h86.345c3.989,0,7.223,3.234,7.223,7.223v79.297
				C193.625,169.647,190.391,172.881,186.402,172.881z"/>
		</g>
		<g>
			<g>
				<path style="fill:#263238;" d="M141.307,90.823c1.666-1.726,8.05,1.735,14.259,7.729c6.209,5.994,9.892,12.252,8.227,13.978
					c-1.666,1.726-8.05-1.735-14.259-7.729C143.324,98.807,139.641,92.549,141.307,90.823z"/>
				<path style="fill:#407BFF;" d="M149.546,104.813c-6.207-5.993-9.894-12.247-8.228-13.976l-19.654,20.388
					c-1.666,1.721,2.014,7.983,8.228,13.976c6.214,5.993,12.587,9.476,14.213,7.723l19.662-20.38
					C162.133,114.265,155.753,110.806,149.546,104.813z"/>
				<path style="opacity:0.6;fill:#FFFFFF;enable-background:new    ;" d="M149.546,104.813c-6.207-5.993-9.894-12.247-8.228-13.976
					l-19.654,20.388c-1.666,1.721,2.014,7.983,8.228,13.976c6.214,5.993,12.587,9.476,14.213,7.723l19.662-20.38
					C162.133,114.265,155.753,110.806,149.546,104.813z"/>
				<path style="fill:#407BFF;" d="M177.617,105.776c-3.695,6.649-9.381,8.583-15.887,7.107h-0.047
					c-2.803-0.568-7.509-3.617-12.137-8.078c-2.366-2.249-4.484-4.745-6.317-7.446c0.174-2.298,3.277-4.201,6.017-4.469
					c3.609-0.363,8.268,0.387,12.839,6.72c5.48,7.596,11.229,6.317,12.058,3.506C175.58,98.188,180.95,99.791,177.617,105.776z"/>
				<path style="fill:#407BFF;" d="M172.406,101.117c0.213-2.061-1.54-2.874-1.406-0.884
					C171.135,102.223,172.256,102.602,172.406,101.117z"/>
				<path style="fill:#407BFF;" d="M176.567,111.066c1.524-0.45,1.5-1.919,0.142-1.248
					C175.351,110.49,175.469,111.382,176.567,111.066z"/>
			</g>
			<path style="fill:#407BFF;" d="M115.596,140.907c-3.589,3.524-3.539,9.394,0.11,13.111c3.65,3.717,9.518,3.873,13.107,0.348
				c3.589-3.524,3.539-9.394-0.11-13.111C125.053,137.539,119.185,137.383,115.596,140.907z"/>
			<path style="opacity:0.6;fill:#407BFF;enable-background:new    ;" d="M138.288,141.898c-3.589,3.524-3.539,9.394,0.11,13.111
				c3.65,3.717,9.518,3.873,13.107,0.348c3.589-3.524,3.539-9.394-0.111-13.111C147.745,138.53,141.877,138.374,138.288,141.898z"/>
			<path style="opacity:0.2;fill:#407BFF;enable-background:new    ;" d="M167.448,157.898c4.897,0.218,9.044-3.576,9.261-8.473
				c0.007-0.154,0.01-0.307,0.008-0.461c-0.038-5.16-4.115-9.384-9.27-9.606c-4.897-0.218-9.044,3.576-9.261,8.473
				c-0.007,0.153-0.01,0.307-0.008,0.461C158.217,153.452,162.293,157.676,167.448,157.898z"/>
		</g>
		<circle style="fill:none;stroke:#407BFF;stroke-width:0.5;stroke-miterlimit:10;" cx="122.205" cy="147.637" r="10.987"/>
	</g>
</g>
<g id="Character_3">
	<g>
		<g>
			<g>
				<g>
					<g>
						<path style="fill:#407BFF;" d="M636.505,466.33h-99.555c-1.89,0-3.422-1.532-3.422-3.422V384.02
							c0-1.89,1.532-3.422,3.422-3.422h101.692c1.89,0,3.422,1.532,3.422,3.422v76.751
							C642.065,463.841,639.576,466.33,636.505,466.33z"/>
					</g>
				</g>
				<path style="opacity:0.7;fill:#FFFFFF;" d="M568.613,423.46v-17.942c0-1.811,1.96-2.943,3.529-2.037l15.538,8.971l15.538,8.971
					c1.568,0.905,1.568,3.169,0,4.075l-15.538,8.971l-15.538,8.971c-1.568,0.906-3.529-0.226-3.529-2.037V423.46z"/>
				<path style="opacity:0.3;" d="M636.583,466.33h-14.168v-85.739h16.382c1.805,0,3.268,1.463,3.268,3.268v76.989
					C642.065,463.875,639.611,466.33,636.583,466.33z"/>
			</g>
			<path style="opacity:0.3;" d="M558.439,459.48c0,0,4.758-2.084,4.681-1.785c-0.077,0.298-7.412-31.921-10.016-43.727
				c-2.604-11.806-7.306-28.039-7.306-28.039l37.957-5.199c0,0-57.112-4.885-56.128-4.147c0.709,0.531,11.102,53.969,19.816,77.859
				C550.83,463.728,558.439,459.48,558.439,459.48z"/>
		</g>
		<g>
			<g>
				<g>
					<g>
						<g>
							<polygon style="fill:#E9B376;" points="502.408,412.525 491.367,432.711 481.732,429.846 490.488,406.418 							"/>
						</g>
					</g>
				</g>
			</g>
			<g>
				<g>
					<g>
						<g>
							<g>
								<g>
									<g>
										<g>
											<g>
												<g>
													<g>
														<g>
															<path style="fill:#263238;" d="M488.907,443.588l-6.891-1.465c0,0-0.394-1.41-1.847-1.762
																c-0.816-0.198-2.984,0.533-2.984,0.533l-18.981-3.888c0.006-0.028,0.262-1.301,0.589-1.821
																c0.398-0.634,0.813-1.153,1.242-1.577c1.502-1.48,3.797-1.781,5.501-1.943c2.856-0.272,11.11-2.458,11.11-2.458
																s2.137-0.768,3.907-3.193c0.987-1.352,2.299-2.032,3.143-1.967c1.722,0.131,2.441,1.315,2.352,2.923l-0.106,1.867
																c1.072,1.26,2.766,1.558,4.319,0.616c0,0,3.992-1.359,3.419,0.389c-0.328,0.997-1.96,5.402-3.145,8.919
																c-0.277,0.82-0.538,1.596-0.766,2.277l-0.002,0C489.258,442.55,488.907,443.588,488.907,443.588z"/>
														</g>
													</g>
												</g>
											</g>
										</g>
									</g>
									<g>
										<g>
											<g>
												<g>
													<path style="fill:#407BFF;" d="M472.234,430.212c0.101-0.059,0.234-0.04,0.32,0.042
														c0.394,0.377,0.69,0.853,0.843,1.404c0.081,0.291-0.384,0.456-0.465,0.162c-0.136-0.49-0.395-0.911-0.738-1.24
														c-0.115-0.11-0.1-0.287,0.036-0.366C472.231,430.214,472.233,430.213,472.234,430.212z"/>
												</g>
											</g>
										</g>
									</g>
									<g>
										<g>
											<g>
												<g>
													<path style="fill:#407BFF;" d="M473.86,429.724c0.101-0.059,0.234-0.04,0.32,0.042c0.394,0.377,0.69,0.853,0.843,1.404
														c0.081,0.291-0.384,0.456-0.465,0.162c-0.136-0.49-0.394-0.91-0.738-1.24c-0.115-0.11-0.1-0.287,0.036-0.366
														C473.857,429.726,473.859,429.725,473.86,429.724z"/>
												</g>
											</g>
										</g>
									</g>
									<g>
										<g>
											<g>
												<g>
													<path style="fill:#407BFF;" d="M475.521,429.299c0.101-0.059,0.234-0.04,0.32,0.042
														c0.394,0.377,0.69,0.853,0.843,1.404c0.081,0.29-0.384,0.456-0.465,0.162c-0.136-0.49-0.394-0.91-0.738-1.24
														c-0.115-0.11-0.1-0.287,0.036-0.366C475.518,429.3,475.52,429.299,475.521,429.299z"/>
												</g>
											</g>
										</g>
									</g>
								</g>
							</g>
						</g>
					</g>
				</g>
			</g>
			<path style="opacity:0.2;fill:#FFFFFF;enable-background:new    ;" d="M480.169,440.36c-0.816-0.198-2.984,0.533-2.984,0.533
				l-18.981-3.888c0.006-0.028,0.262-1.301,0.589-1.821c0.183-0.291,0.37-0.552,0.56-0.796l30.543,6.271
				c-0.042,0.125-0.088,0.26-0.128,0.379l-0.002,0c-0.508,1.511-0.86,2.549-0.86,2.549l-6.891-1.465
				C482.016,442.123,481.622,440.713,480.169,440.36z"/>
			<path style="fill:none;stroke:#407BFF;stroke-width:0.25;stroke-miterlimit:10;" d="M475.652,429.554
				c0.192-0.647,0.386-1.297,0.462-1.967c0.076-0.67,0.03-1.368-0.241-1.986c-0.126-0.287-0.338-0.58-0.649-0.624
				c-0.327-0.046-0.624,0.205-0.798,0.485c-0.335,0.539-0.38,1.223-0.222,1.837C474.362,427.914,475.25,429.064,475.652,429.554"/>
			<path style="fill:none;stroke:#407BFF;stroke-width:0.25;stroke-miterlimit:10;" d="M475.732,429.571
				c0.384-0.555,0.771-1.112,1.246-1.591c0.475-0.479,1.048-0.879,1.7-1.054c0.303-0.081,0.664-0.099,0.892,0.116
				c0.24,0.226,0.231,0.615,0.121,0.926c-0.211,0.598-0.716,1.062-1.294,1.323C477.819,429.551,476.366,429.577,475.732,429.571"/>
		</g>
		<g>
			<g>
				<g>
					<g>
						<g>
							<polygon style="fill:#E9B376;" points="548.035,427.328 553.074,449.778 543.946,453.99 535.05,430.614 							"/>
						</g>
					</g>
				</g>
			</g>
			<g>
				<g>
					<g>
						<g>
							<g>
								<g>
									<g>
										<g>
											<g>
												<g>
													<g>
														<g>
															<path style="fill:#263238;" d="M558.409,459.571l-6.143,3.451c0,0-1.227-0.798-2.55-0.104
																c-0.744,0.39-1.889,2.371-1.889,2.371l-16.821,9.615c-0.014-0.025-0.662-1.151-0.761-1.756
																c-0.12-0.738-0.151-1.403-0.108-2.004c0.15-2.103,1.675-3.845,2.848-5.092c1.966-2.09,6.72-9.182,6.72-9.182
																s1.098-1.988,0.825-4.977c-0.152-1.667,0.385-3.045,1.062-3.553c1.379-1.038,2.702-0.625,3.696,0.641l1.154,1.472
																c1.637,0.238,3.106-0.656,3.65-2.389c0,0,2.101-3.657,2.824-1.966c0.413,0.965,2.095,5.351,3.528,8.775
																c0.333,0.799,0.65,1.553,0.928,2.216l-0.001,0.001C557.987,458.56,558.409,459.571,558.409,459.571z"/>
														</g>
													</g>
												</g>
											</g>
										</g>
									</g>
									<g>
										<g>
											<g>
												<g>
													<path style="fill:#407BFF;" d="M537.055,460.536c0.037-0.111,0.15-0.184,0.268-0.179
														c0.544,0.023,1.082,0.185,1.561,0.498c0.252,0.165,0.013,0.596-0.242,0.429c-0.426-0.278-0.898-0.423-1.373-0.444
														c-0.159-0.007-0.264-0.149-0.215-0.299C537.054,460.54,537.055,460.538,537.055,460.536z"/>
												</g>
											</g>
										</g>
									</g>
									<g>
										<g>
											<g>
												<g>
													<path style="fill:#407BFF;" d="M537.954,459.096c0.037-0.111,0.15-0.184,0.268-0.179
														c0.544,0.023,1.082,0.185,1.56,0.498c0.252,0.165,0.013,0.596-0.242,0.429c-0.426-0.278-0.898-0.423-1.373-0.444
														c-0.159-0.007-0.264-0.149-0.215-0.298C537.953,459.099,537.954,459.098,537.954,459.096z"/>
												</g>
											</g>
										</g>
									</g>
									<g>
										<g>
											<g>
												<g>
													<path style="fill:#407BFF;" d="M538.921,457.68c0.037-0.111,0.149-0.185,0.268-0.179
														c0.544,0.023,1.082,0.185,1.56,0.498c0.252,0.165,0.013,0.596-0.242,0.429c-0.425-0.278-0.897-0.423-1.373-0.444
														c-0.159-0.007-0.265-0.149-0.215-0.299C538.919,457.683,538.92,457.682,538.921,457.68z"/>
												</g>
											</g>
										</g>
									</g>
								</g>
							</g>
						</g>
					</g>
				</g>
			</g>
			<path style="opacity:0.2;fill:#FFFFFF;enable-background:new    ;" d="M549.716,462.918c-0.744,0.39-1.888,2.371-1.888,2.371
				l-16.821,9.615c-0.014-0.025-0.662-1.151-0.761-1.756c-0.055-0.339-0.087-0.659-0.106-0.968l27.078-15.46
				c0.051,0.121,0.106,0.253,0.155,0.369l-0.001,0.001c0.616,1.47,1.037,2.482,1.037,2.482l-6.143,3.451
				C552.266,463.022,551.04,462.223,549.716,462.918z"/>
			<path style="fill:none;stroke:#407BFF;stroke-width:0.25;stroke-miterlimit:10;" d="M539.188,457.786
				c-0.282-0.613-0.567-1.229-0.952-1.783c-0.385-0.554-0.881-1.047-1.492-1.332c-0.284-0.132-0.637-0.212-0.899-0.04
				c-0.276,0.181-0.334,0.566-0.279,0.892c0.104,0.625,0.522,1.17,1.047,1.526C537.136,457.406,538.562,457.682,539.188,457.786"/>
			<path style="fill:none;stroke:#407BFF;stroke-width:0.25;stroke-miterlimit:10;" d="M539.259,457.745
				c-0.078-0.67-0.156-1.344-0.115-2.018c0.04-0.673,0.206-1.353,0.58-1.914c0.174-0.261,0.433-0.513,0.747-0.502
				c0.329,0.011,0.579,0.31,0.703,0.616c0.237,0.588,0.163,1.271-0.099,1.848C540.813,456.352,539.739,457.331,539.259,457.745"/>
		</g>
		<g>
			<g id="freepik--Character--inject-281_00000005252941569225955230000005281706764941849498_">
				<path style="fill:#263238;" d="M512.433,369.479c0.363,3.599,1.142,8.516,2.081,12.009c2.551,9.861,5.465,19.346,9.127,29.141
					c7.085,19.352,12.809,37.307,12.809,37.307l17.994-5.397c0,0-11.897-55.995-19.921-61.718h49.2c0.92,0,1.838-0.062,2.75-0.185
					c-8.473-1.097-21.679-6.319-33.933-11.54c-10.826-4.627-20.952-9.253-26.438-10.998l0,0
					C519.388,360.966,511.918,363.835,512.433,369.479z"/>
				<path style="opacity:0.6;enable-background:new    ;" d="M526.09,358.151c5.499,1.785,15.625,6.371,26.438,10.998
					c12.254,5.221,25.459,10.443,33.932,11.54c14.276-1.904,19.643-18.916,4.719-38.533c-9.689,0-19.432,9.253-19.432,9.253
					S542.455,351.264,526.09,358.151z"/>
				<path style="fill:#263238;" d="M486.024,418.402l11.897,7.204c0,0,9.927-20.846,19.418-44.362
					c-0.939-3.493-1.594-7.056-1.956-10.654c-0.516-5.645,3.966-9.623,10.681-12.426l0,0c5.499,1.785,15.625,6.371,26.438,10.998
					c12.254,5.221,25.459,10.443,33.933,11.54c0.973,0.131,1.953,0.201,2.935,0.212c16.286,0,21.904-14.276,15.334-38.493
					c-9.689,0-26.279-1.044-26.279-1.044s-32.016-7.693-55.056-5.076c-11.218,1.322-20.298,9.735-22.472,20.82
					C494.96,386.518,486.024,418.402,486.024,418.402z"/>
				<path style="fill:#263238;" d="M484.146,419.277l13.775,6.329c0,0,9.927-20.846,19.418-44.362
					c-0.939-3.493-1.594-7.056-1.956-10.654c-0.516-5.645,3.966-9.623,10.681-12.426l0,0c5.499,1.785,15.625,6.371,26.438,10.998
					c12.254,5.221,25.459,10.443,33.933,11.54c0.973,0.131,1.953,0.201,2.935,0.212c16.286,0,21.904-14.276,15.334-38.493
					c-9.689,0-26.279-1.044-26.279-1.044s-32.016-7.693-55.056-5.076c-11.218,1.322-20.298,9.735-22.472,20.82
					C494.96,386.518,484.146,419.277,484.146,419.277z"/>
			</g>
			<path style="opacity:0.2;enable-background:new    ;" d="M512.433,369.479c0.363,3.599,1.142,8.516,2.081,12.009
				c2.551,9.861,5.465,19.346,9.127,29.141c7.085,19.352,12.809,37.307,12.809,37.307l17.994-5.397c0,0-11.897-55.995-19.921-61.718
				h49.2c0.92,0,1.838-0.062,2.75-0.185c-8.473-1.097-21.679-6.319-33.933-11.54c-10.826-4.627-20.952-9.253-26.438-10.998l0,0
				C519.388,360.966,511.918,363.835,512.433,369.479z"/>
		</g>
		<g>
			<path style="fill:#407BFF;" d="M568.13,266.327l5.467-4.438l15.566-1.029c0,0,3.901,3.206,4.094,3.238
				c0.193,0.032,2.467,0.943,2.467,0.943l-1.544,3.795L568.13,266.327z"/>
			<path style="fill:#E9B376;" d="M553.258,288.716c0,0-8.157,25.706-8.949,27.122c-2.68,4.789-20.43,12.999-20.43,12.999
				l-9.05-1.896l-6.485,5.416l4.276,3.349l5.017-1.896c2.738,0.488,5.514,0.732,8.295,0.727c4.675,0,27.219-5.714,30.981-11.999
				c3.763-6.285,5.491-35.391,5.491-35.391L553.258,288.716z"/>
			<g id="freepik--group--inject-39">
				<path style="fill:#407BFF;" d="M605.905,347.37l-54.324-8.189c0.808-35.221,8.857-72.079,8.857-72.079
					c15.665-1.772,31.476-1.848,47.157-0.229C600.311,289.457,605.905,347.37,605.905,347.37z"/>
				<path style="opacity:0.6;fill:#FFFFFF;enable-background:new    ;" d="M601.276,346.733l-49.696-7.551
					c0.808-35.221,8.857-72.079,8.857-72.079c15.665-1.772,31.476-1.848,47.157-0.229
					C600.311,289.457,601.276,346.733,601.276,346.733z"/>
				<path style="fill:#407BFF;" d="M607.595,266.872c-2.949,25.534,4.698,79.86,4.698,79.86c-3.448,7.39-12.634,8.765-23.496,8.384
					c-9.742-42.014,4.207-90.997,4.207-90.997L607.595,266.872z"/>
				<path style="fill:#407BFF;" d="M560.438,267.058c-7.23,19.079-11.58,71.517-11.58,71.517l4.32,1.036
					c5.635-63.288,17.657-74.771,17.657-74.771L560.438,267.058z"/>
				<g>
					<path style="fill:#407BFF;" d="M565.433,289.364l0.513-7.252c0.025-0.415,0.325-0.734,0.681-0.721l17.786,0.568
						c0.007,0,0.013,0,0.02,0.001c0.37,0.024,0.654,0.396,0.633,0.829l-0.373,7.47l-0.373,7.503c0,0.004,0,0.009-0.001,0.013
						c-0.021,0.428-0.334,0.754-0.699,0.73l-18.047-1.267c-0.001,0-0.002,0-0.003,0c-0.375-0.031-0.658-0.412-0.631-0.852
						L565.433,289.364z"/>
					<path style="opacity:0.4;fill:#FFFFFF;enable-background:new    ;" d="M565.433,289.364l0.513-7.252
						c0.025-0.415,0.325-0.734,0.681-0.721l17.786,0.568c0.007,0,0.013,0,0.02,0.001c0.37,0.024,0.654,0.396,0.633,0.829
						l-0.373,7.47l-0.373,7.503c0,0.004,0,0.009-0.001,0.013c-0.021,0.428-0.334,0.754-0.699,0.73l-18.047-1.267
						c-0.001,0-0.002,0-0.003,0c-0.375-0.031-0.658-0.412-0.631-0.852L565.433,289.364z"/>
					<path style="opacity:0.2;fill:#263238;enable-background:new    ;" d="M565.433,289.364c3.069,0.754,8.553,2.031,8.665,1.627
						c0.149-0.568,0.065-2.872,0.401-3.527c0.336-0.655,3.339,6.105,4.346,5.122c1.007-0.983,0.075-8.213,2.043-8.289
						c1.082-0.044,2.639,3.123,3.805,5.963l-0.373,7.503c0,0.004,0,0.009-0.001,0.013c-0.021,0.428-0.334,0.754-0.699,0.73
						l-18.047-1.267c-0.001,0-0.002,0-0.003,0c-0.375-0.031-0.658-0.412-0.631-0.852L565.433,289.364z"/>
				</g>
				<path style="fill:#407BFF;" d="M540.669,302.447l10.911,3.063h0.876l3.842-20.007l4.139-18.369
					C550.119,268.538,540.669,302.447,540.669,302.447z"/>
				<polygon style="fill:#407BFF;" points="589.133,260.951 590.112,277.105 593.257,264.098 				"/>
			</g>
		</g>
		<g>
			<g>
				<path style="fill:#263238;" d="M536.97,336.378h16.346h17.345c0,0.004,0,0.008,0,0.011c-0.008,1.286-1.445,2.324-3.209,2.318
					h-17.33h-9.914c-0.015,0-0.031,0-0.046,0c-0.001,0-0.002,0-0.003,0h-27.589c-1.749-0.012-3.157-1.053-3.148-2.329H536.97z"/>
			</g>
			<path style="fill:#263238;" d="M512.067,338.576h30.779c0.531-0.004,0.958-0.352,0.954-0.778c-0.001-0.08-0.017-0.16-0.048-0.236
				l-13.692-31.391c-0.346-0.896-1.377-1.509-2.546-1.513h-30.798c-0.521,0-0.943,0.339-0.943,0.757
				c0,0.087,0.019,0.174,0.056,0.257l13.692,31.39C509.872,337.956,510.9,338.566,512.067,338.576z"/>
			<path style="opacity:0.7;fill:#FFFFFF;enable-background:new    ;" d="M496.715,304.658h30.798
				c1.169,0.004,2.2,0.617,2.546,1.513l13.176,30.207h10.081h17.345c0,0.004,0,0.007,0,0.011c-0.008,1.286-1.445,2.324-3.209,2.318
				h-17.33h-9.914c-0.015,0-0.031,0-0.046,0c-0.001,0-0.002,0-0.003,0h-27.589c-0.555-0.004-1.067-0.12-1.519-0.306
				c-0.716-0.241-1.289-0.719-1.532-1.339l-13.692-31.39c-0.037-0.082-0.056-0.169-0.056-0.257
				C495.773,304.997,496.195,304.658,496.715,304.658z"/>
			<path style="fill:#FFFFFF;" d="M515.212,321.369c0.665,1.506,2.013,2.541,3.018,2.33c1.005-0.21,1.273-1.583,0.628-3.094
				c-0.645-1.511-2.009-2.521-3.014-2.311C514.838,318.505,514.538,319.823,515.212,321.369z"/>
			<g style="opacity:0.3;">
				
					<line style="fill:none;stroke:#000000;stroke-width:0;stroke-linecap:round;stroke-linejoin:round;" x1="543.8" y1="336.378" x2="543.235" y2="336.378"/>
				<path d="M530.059,306.171l13.176,30.207h-1.427l-14.295-31.72C528.682,304.662,529.713,305.275,530.059,306.171z"/>
			</g>
		</g>
		<g>
			<g>
				<path style="fill:#E9B376;" d="M599.734,283.969c0,0-2.153,31.559-4.696,34.299c-4.298,4.629-27.842,14.656-27.842,14.656
					l-10.628-3.727c-0.745-0.245-1.568-0.111-2.177,0.354l-7.266,5.546l0.694,0.585c0.3,0.253,0.734,0.304,1.087,0.128l1.129-0.562
					l-1.263,1.238l0.4,0.337c0.398,0.335,0.95,0.456,1.461,0.319l3.249-0.871l-2.998,1.996c0.669,0.564,1.601,0.76,2.456,0.517
					l4.754-1.355c3.242,0.742,6.544,1.215,9.87,1.414c5.597,0.345,33.448-4.764,38.374-11.526
					c4.927-6.762,8.587-38.964,8.587-38.964L599.734,283.969z"/>
			</g>
			<path style="fill:#407BFF;" d="M607.595,266.872c0,0,8.886,1.147,8.852,10.649c-0.03,8.187-2.992,29.519-2.992,29.519
				l-18.819-3.547l4.145-23.609C599.729,274.488,602.936,269.754,607.595,266.872L607.595,266.872z"/>
		</g>
		<g>
			<g>
				<path style="fill:#263238;" d="M566.155,226.491c0.379-0.483-0.667-11.327,18.001-5.93c13.862,4.007,8.625,14.874,8.625,14.874
					l-15.852-11.451L566.155,226.491z"/>
				<path style="fill:#E9B376;" d="M588.76,265.994c-1.38-0.806-1.557-1.421-1.999-2.858c-1.145-3.712,0.086-16.376,0.086-16.376
					l-13.841,5.69c0,0,0.107,0.31,0.268,0.834c0.439,1.465,1.326,4.588,1.594,7.198c0.171,1.626,0.096,3.059-0.449,3.786
					c-0.566,0.749-2.209,1.766-3.254,2.117c0,0,1.754,3.779,7.956,3.295S588.76,265.994,588.76,265.994z"/>
				<path style="opacity:0.2;enable-background:new    ;" d="M584.55,253.729c0,0-2.973,6.182-9.808,5.968
					c-0.267-2.61-1.155-5.733-1.594-7.198c0.513-0.192,0.845-0.31,0.845-0.31L584.55,253.729z"/>
				<path style="fill:#263238;" d="M566.923,224.27c0,0-4.029,11.398,1.338,17.104c5.367,5.706,9.546-16.146,9.546-16.146
					L566.923,224.27z"/>
				<path style="fill:#E9B376;" d="M584.565,254.162c-4.221,3.185-9.002,3.962-13.023,1.789c-2.586-1.393-4.703-3.775-5.718-6.811
					c-0.138-0.397-0.249-0.811-0.348-1.235c-1.695-7.76-0.271-20.494,8.214-23.746c6.034-2.362,12.855,0.616,15.215,6.661
					c0.683,1.714,0.935,3.571,0.762,5.414C588.995,244.799,589.495,250.441,584.565,254.162z"/>
				<path style="fill:#263238;" d="M576.631,238.864c0.045,0.895-0.503,1.62-1.101,1.607c-0.599-0.013-1.049-0.759-1.037-1.657
					c0.012-0.898,0.517-1.621,1.102-1.607C576.179,237.221,576.643,237.952,576.631,238.864z"/>
				<path style="fill:#263238;" d="M568.769,238.846c0.045,0.895-0.517,1.621-1.102,1.607c-0.585-0.013-1.049-0.759-1.037-1.657
					c0.012-0.897,0.517-1.621,1.102-1.607C568.317,237.202,568.784,237.991,568.769,238.846z"/>
				<path style="fill:#D58745;" d="M571.183,238.614c-0.875,2.122-2.039,4.113-3.459,5.917c0.959,0.715,2.184,0.968,3.348,0.694
					L571.183,238.614z"/>
				<path style="fill:#263238;" d="M565.814,234.785c0.133,0.077,0.296,0.078,0.429,0.001c0.884-0.556,1.978-0.663,2.953-0.287
					c0.202,0.1,0.447,0.016,0.547-0.186c0.1-0.202,0.016-0.447-0.186-0.547c-0.001,0-0.001-0.001-0.002-0.001
					c-1.22-0.506-2.609-0.389-3.727,0.314c-0.197,0.11-0.268,0.358-0.158,0.555c0.002,0.003,0.003,0.006,0.005,0.008
					C565.713,234.698,565.76,234.745,565.814,234.785z"/>
				<path style="fill:#263238;" d="M578.21,235.247c0.083-0.001,0.163-0.028,0.23-0.077c0.152-0.166,0.141-0.424-0.025-0.577
					c-0.002-0.002-0.004-0.004-0.007-0.006c-0.97-0.902-2.319-1.276-3.615-1.002c-0.217,0.06-0.345,0.284-0.286,0.501l0,0.001
					c0.065,0.214,0.286,0.34,0.503,0.286l0,0c1.029-0.187,2.086,0.124,2.851,0.838C577.967,235.274,578.094,235.287,578.21,235.247z
					"/>
				<path style="fill:#263238;" d="M583.577,225.395l-0.716,3.747c1.194,0.744,1.847,2.192,1.175,3.642
					c-1.434,3.096,0.035,8.146,2.341,10.276c0,0,0.169-1.372,1.308-0.967c1.14,0.405,0.042,6.175-1.167,9.722
					c0,0,2.641-1.765,5.084-9.16c2.26-6.839,2.875-12.625,1.626-15.414L583.577,225.395z"/>
				<path style="opacity:0.4;fill:#FFFFFF;" d="M583.577,225.395l-0.716,3.747c1.194,0.744,1.847,2.192,1.175,3.642
					c-1.434,3.096,0.035,8.146,2.341,10.276c0,0,0.169-1.372,1.308-0.967c1.14,0.405,0.042,6.175-1.167,9.722
					c0,0,2.641-1.765,5.084-9.16c2.26-6.839,2.875-12.625,1.626-15.414L583.577,225.395z"/>
				<path style="fill:#E9B376;" d="M593.279,243.35c-0.991,1.924-2.705,3.377-4.766,4.039c-2.735,0.858-4.192-1.57-3.514-4.201
					c0.624-2.333,2.787-5.669,5.574-5.352C593.36,238.154,594.466,240.973,593.279,243.35z"/>
				<path style="opacity:0.1;fill:none;stroke:#000000;stroke-width:0.5;stroke-miterlimit:10;" d="M586.835,243.804
					c0.262-1.44,1.193-2.744,2.469-3.461c0.543-0.305,1.277-0.485,1.747-0.077"/>
				<g>
					<path style="fill:#263238;" d="M563.907,227.357c-1.584,0.372-3.347-0.147-4.478-1.317c2.24-0.146,4.443-0.825,6.377-1.965
						c-1.966,0.501-4.159,0-5.713-1.303c2.971-0.473,5.688-1.907,8.518-2.928c6.257-2.258,13.33-2.456,19.533-0.054
						c1.464,0.567,2.923,1.311,3.893,2.545c0.97,1.234,2.028,3.577,1.192,4.905l-10.11,0.454c-1.618-2.977-4.175-1.943-7.874,0.266
						c-1.498,0.894-4.91,2.574-6.601,3.005c-2.141,0.546-3.827,0.795-5.145,0.729c-2.276-0.116-3.203-0.775-4.598-1.821
						C560.971,229.094,562.284,228.862,563.907,227.357z"/>
				</g>
			</g>
			<g>
				<path style="fill:#263238;" d="M574.232,246.442c1.626-0.461,3.135-1.263,4.427-2.352c0.142,0.254,0.246,0.527,0.308,0.811
					c0.126,0.502,0.126,1.028,0,1.531c-0.257,1.027-1.13,2.147-3.534,2.845c-0.175,0.061-0.354,0.112-0.534,0.154
					c-0.444-0.947-0.955-1.86-1.531-2.732C573.37,246.699,573.698,246.617,574.232,246.442z"/>
				<path style="fill:#FFFFFF;" d="M578.618,244.09c0.142,0.254,0.246,0.527,0.308,0.811c-0.503,0.894-2.003,1.664-4.263,2.342
					l-0.473-0.801C575.817,245.981,577.326,245.179,578.618,244.09z"/>
				<path style="fill:#C15854;" d="M576.451,247.736c0.755-0.58,1.607-1.021,2.517-1.305c-0.257,1.027-1.13,2.147-3.534,2.845
					C575.604,248.67,575.96,248.131,576.451,247.736z"/>
			</g>
		</g>
	</g>
</g>
<g id="Character_2">
	<g id="freepik--character-1--inject-2_00000169534973332008825670000001233928088400013704_">
		<g>
			<path style="fill:none;" d="M337.502,238.85l-7.271,5.886l-7.989,38.301l5.162,10.24l-2.48-0.38
				c-0.194,0.218-0.382,0.415-0.571,0.613l9.24,1.465c0.017-1.676,0.033-3.27,0.047-4.768c-1.4-0.171-2.189-0.273-2.189-0.273
				l0.754-3.98c-0.255-0.069-0.511-0.134-0.766-0.205c0,0,2.953-18.245,7.057-37.222c0.071-0.333,0.138-0.659,0.209-0.992
				c0.287-1.299,0.575-2.61,0.874-3.92c0.453-2.013,0.916-4.009,1.389-5.982c-0.981,0.634-1.957,1.277-2.952,1.889L337.502,238.85z"
				/>
			<path style="opacity:0.3;" d="M448.561,222.593c-0.66,0.591-2.812,2.405-4.358,4.011c-0.668,0.693-1.644,1.609-2.585,2.492
				c-0.122,0.09-0.246,0.179-0.357,0.289l-0.915,0.913c-0.461,0.441-0.861,0.835-1.135,1.132l-1.051,1.049
				c-0.623,0.63-1.123,1.372-1.473,2.186l-2.115,7.633c-4.86,4.793-15.368,14.629-15.978,14.252
				c-0.403-0.249-2.319-5.81-4.082-11.143l3.22-1.146l-0.54-1.587l-0.571,0.21c-1.063-3.921-7.325-26.765-9.626-29.307l-0.005,0.006
				c-4.325-4.992-9.863-8.677-15.994-10.78c0.158-0.6,0.364-1.183,0.623-1.744c2.511,1.169,5.446,1.352,8.179,0.344
				c2.856-1.003,5.221-3.059,6.611-5.748c0.195-0.356,0.368-0.747,0.54-1.15c0.673-1.712,1.218-4.01,1.561-6.508
				c1.646-0.214,3.02-1.483,3.268-3.206c0.119-1.822-0.987-3.428-2.608-4.055c0.362-1.811,0.453-3.627,0.429-5.171
				c1.595-1.457,2.463-3.548,2.363-5.708c-0.333-3.334-4.966-3.897-4.966-3.897s-1.391-3.759-4.461-4.898
				c-3.069-1.138-6.151,1.713-6.151,1.713s-3.828-3.702-8.289-2.644c-3.095,0.635-5.324,3.348-5.346,6.507
				c0,0-5.231,0.529-5.116,3.219c0.106,2.484,2.697,4.249,3.094,4.505c-0.167,2.206-0.087,4.83,0.328,8.072
				c-0.351,0.533-0.574,1.159-0.597,1.844c-0.017,0.498,0.07,0.993,0.256,1.456c0.332,1.018,0.862,1.948,1.546,2.744
				c0.534,1.69,1.186,3.109,1.828,4.245c-1.372,3.053-3.06,5.999-4.969,8.037c-7.319-0.289-12.374-0.067-16.293,0.784
				c-0.068,0.014-0.135,0.03-0.203,0.045c-0.251,0.057-0.498,0.116-0.741,0.178c-0.538,0.135-1.06,0.28-1.558,0.442
				c-5.722,1.019-11.022,3.704-15.204,7.758c-6.461,6.001-17.13,16.417-17.13,16.417l0.036,0.047
				c-5.108,4.834-9.627,9.271-10.711,10.826c-2.782,3.989-2.648,44.077-2.648,44.077s-1.247,2.525-1.278,4.333
				c-0.012,0.712-0.306,4.114-0.379,6.047l-17.467-2.77c-2.87-0.455-5.566,1.503-6.021,4.373l-4.825,30.429
				c-0.455,2.87,1.503,5.566,4.373,6.021l43.923,6.965c-0.002,0.087-0.004,0.175-0.005,0.262h27.529
				c0.477-5.98,0.92-11.612,1.296-16.327c0.006,0.017,0.015,0.066,0.022,0.095l-0.011,0.014c0,0,0.98,8.859,1.763,16.218h23.066
				c-1.349-16.923-3.199-31.731-4.87-43.08c0.322,0,0.649,0.003,0.965,0.001l-0.47-2.555c0.153-0.008,0.306-0.012,0.459-0.02
				c0,0,0-0.018,0-0.02c0.001-0.057,0.023-1.935,0.234-4.897c0.029-0.38,0.061-0.773,0.099-1.187
				c0.138-1.747,0.345-3.794,0.632-6.001c0.117-0.901,0.26-1.863,0.413-2.846c0.92-5.783,2.45-12.3,5.002-17.721
				c2.402-5.048,4.678-10.153,6.845-15.304l2.053,3.796l1.164,2.133l-0.704,0.259l0.529,1.38l2.243-0.799
				c3.859,10.049,9.436,22.498,13.818,23.849c6.66,2.052,22.008-22.809,25.232-28.178c3.177-1.132,5.644-5.906,5.644-5.906
				l2.733-3.64c0.92-1.225,0.83-2.932-0.214-4.053l-2.648-2.729c0.013-0.014,0.027-0.032,0.039-0.046
				c1.027-1.197,4.113-4.087,4.303-5.22C450.342,223.074,449.22,222.002,448.561,222.593z M339.579,243.616
				c-0.299,1.311-0.586,2.621-0.874,3.92c-0.071,0.333-0.138,0.659-0.209,0.992c-4.104,18.977-7.057,37.222-7.057,37.222
				c0.255,0.071,0.511,0.135,0.766,0.205l-0.754,3.98c0,0,0.788,0.102,2.189,0.273c-0.014,1.498-0.03,3.091-0.047,4.768l-9.24-1.465
				c0.189-0.198,0.377-0.395,0.571-0.613l2.48,0.38l-5.162-10.24l7.989-38.301l7.271-5.886l0.514,0.673
				c0.995-0.613,1.971-1.255,2.952-1.889C340.495,239.606,340.032,241.603,339.579,243.616z"/>
		</g>
		<g>
			<polygon style="fill:#A77865;" points="369.696,462.586 378.696,461.78 380.424,442.382 368.4,444.01 			"/>
			<g>
				<g>
					<path style="fill:#263238;" d="M379.926,455.754h-3.134c-0.709,0-1.365,0.359-1.784,0.931
						c-1.807,2.468-3.166,1.535-5.132-0.785c-1.25-0.146-1.586,1.289-1.688,1.674l-2.343,8.523c-0.204,0.712,0.208,1.454,0.92,1.657
						c0.127,0.036,0.258,0.054,0.389,0.052c3.806,0,5.607,0,10.344,0h14.488c3.949,0,4.768-3.98,3.141-4.348
						c-7.315-1.617-12.495-3.769-14.757-5.898C379.951,457.187,380.382,456.908,379.926,455.754z"/>
					<path style="fill:#407BFF;" d="M386.727,458.177c0.33-0.237,0.527-0.617,0.532-1.023c0.028-0.218-0.072-0.432-0.256-0.552
						c-0.982-0.696-4.901,1.136-5.341,1.35c-0.049,0.017-0.087,0.056-0.105,0.105c-0.032,0.09,0.014,0.19,0.105,0.223
						c0.963,0.228,1.947,0.355,2.936,0.379C385.341,458.729,386.087,458.56,386.727,458.177z M386.758,456.898
						c0.08,0.049,0.121,0.143,0.102,0.235c-0.016,0.293-0.158,0.565-0.389,0.747c-0.89,0.665-3.039,0.378-4.195,0.164
						C383.903,457.328,386.216,456.52,386.758,456.898z"/>
					<path style="fill:#407BFF;" d="M381.796,458.321c1.177-0.491,3.642-2.425,3.509-3.448c-0.021-0.215-0.174-0.471-0.706-0.542
						c-2.149-0.246-3.069,3.612-3.069,3.775c-0.021,0.066-0.001,0.138,0.051,0.184c0.04,0.012,0.083,0.012,0.123,0L381.796,458.321z
						 M384.528,454.647c0.399,0.041,0.399,0.184,0.399,0.235c0.112,0.624-1.678,2.23-2.957,2.906c0.266-0.9,1.054-3.151,2.414-3.151
						L384.528,454.647z"/>
					
						<path style="fill:none;stroke:#407BFF;stroke-width:0.5;stroke-linecap:round;stroke-linejoin:round;stroke-miterlimit:10;" d="
						M382.102,458.173c-1.079,0.147-2.081,0.792-2.661,1.714"/>
					
						<path style="fill:none;stroke:#407BFF;stroke-width:0.5;stroke-linecap:round;stroke-linejoin:round;stroke-miterlimit:10;" d="
						M384.05,459.639c-1.08,0.147-2.081,0.792-2.661,1.715"/>
					
						<path style="fill:none;stroke:#407BFF;stroke-width:0.5;stroke-linecap:round;stroke-linejoin:round;stroke-miterlimit:10;" d="
						M386.473,460.872c-1.08,0.147-2.081,0.792-2.662,1.714"/>
				</g>
			</g>
		</g>
		<g>
			<polygon style="fill:#A77865;" points="325.555,462.712 334.073,462.712 338.231,442.984 326.093,442.984 			"/>
			<g>
				<g>
					<path style="fill:#263238;" d="M335.88,456.987h-3.134c-0.709,0-1.365,0.359-1.784,0.931c-1.807,2.468-3.166,1.535-5.132-0.785
						c-1.25-0.146-1.586,1.289-1.688,1.674l-2.343,8.523c-0.203,0.712,0.208,1.454,0.92,1.657c0.127,0.036,0.258,0.054,0.389,0.052
						c3.806,0,5.607,0,10.344,0h14.488c3.949,0,4.768-3.98,3.141-4.348c-7.315-1.616-12.496-3.769-14.757-5.897
						C335.905,458.42,336.336,458.141,335.88,456.987z"/>
					<path style="fill:#407BFF;" d="M342.682,459.41c0.33-0.237,0.527-0.617,0.532-1.023c0.028-0.218-0.072-0.432-0.256-0.552
						c-0.982-0.696-4.901,1.136-5.341,1.351c-0.049,0.018-0.087,0.056-0.105,0.105c-0.033,0.09,0.014,0.19,0.105,0.222
						c0.963,0.228,1.947,0.355,2.936,0.379C341.296,459.962,342.042,459.793,342.682,459.41z M342.712,458.131
						c0.08,0.049,0.121,0.143,0.102,0.235c-0.016,0.293-0.158,0.565-0.389,0.747c-0.89,0.665-3.039,0.379-4.195,0.164
						C339.858,458.561,342.17,457.753,342.712,458.131z"/>
					<path style="fill:#407BFF;" d="M337.75,459.553c1.177-0.491,3.642-2.425,3.509-3.448c-0.021-0.215-0.174-0.47-0.706-0.542
						c-2.149-0.245-3.069,3.612-3.069,3.775c-0.021,0.066-0.001,0.138,0.051,0.184c0.04,0.012,0.083,0.012,0.123,0L337.75,459.553z
						 M340.482,455.88c0.399,0.041,0.399,0.184,0.399,0.235c0.113,0.624-1.678,2.23-2.957,2.906c0.266-0.9,1.054-3.151,2.414-3.151
						L340.482,455.88z"/>
					
						<path style="fill:none;stroke:#407BFF;stroke-width:0.5;stroke-linecap:round;stroke-linejoin:round;stroke-miterlimit:10;" d="
						M338.056,459.406c-1.08,0.147-2.081,0.792-2.662,1.714"/>
					
						<path style="fill:none;stroke:#407BFF;stroke-width:0.5;stroke-linecap:round;stroke-linejoin:round;stroke-miterlimit:10;" d="
						M340.004,460.872c-1.079,0.147-2.081,0.792-2.662,1.715"/>
					
						<path style="fill:none;stroke:#407BFF;stroke-width:0.5;stroke-linecap:round;stroke-linejoin:round;stroke-miterlimit:10;" d="
						M342.428,462.105c-1.08,0.147-2.081,0.792-2.662,1.714"/>
				</g>
			</g>
		</g>
		<g>
			<path style="fill:#263238;" d="M328.749,269.687h45.216c2.696,14.751,8.766,53.087,9.551,97.912
				c0.539,30.773,1.26,80.538,0,83.202l-18.007,0.06c0,0-0.771-38.437-3.158-76.628c-1.374-21.988-5.069-59.174-5.527-60.491
				c-1.552,19.429-4.225,54.38-5.777,65.382c-3.932,27.074-8.619,72.196-8.619,72.196H323.65c0,0,1.451-48.16,2.923-74.763
				C328.182,347.642,328.749,275.619,328.749,269.687z"/>
			<path style="opacity:0.2;fill:#263238;enable-background:new    ;" d="M356.834,313.85c0,0,1.821,16.456,2.48,23.141
				c1.265-17.245,2.55-29.615,2.55-29.615L356.834,313.85z"/>
		</g>
		<path style="fill:#A77865;" d="M431.998,232.864c-0.563,0.943-17.613,17.245-18.394,16.762
			c-0.782-0.483-7.266-20.981-7.266-20.981l-14.658,1.621c0,0,10.933,34.489,18.394,36.789c7.461,2.299,25.843-29.205,25.843-29.205
			"/>
		<g>
			<path style="fill:#407BFF;" d="M327.496,277.551l-1.035,5.461c0,0,31.627,4.093,51.297,3.978l-0.69-3.748L327.496,277.551z"/>
			<path style="fill:#407BFF;" d="M385.472,226.288l1.334,2.449l6.22,11.496l1.299,2.38l17.463-6.07c0,0-7.266-27.109-9.784-29.891
				L385.472,226.288z"/>
			<path style="opacity:0.4;fill:#FFFFFF;enable-background:new    ;" d="M385.472,226.288l1.334,2.449l6.22,11.496l1.299,2.38
				l17.463-6.07c0,0-7.266-27.109-9.784-29.891L385.472,226.288z"/>
			<path style="opacity:0.2;fill:#263238;enable-background:new    ;" d="M386.806,228.737l6.22,11.496
				c3.851-7.553,2.736-17.9,2.736-17.9L386.806,228.737z"/>
			<path style="fill:#407BFF;" d="M402.004,206.663c-6.649-7.678-16.158-12.291-26.304-12.761
				c-17.107-0.805-22.487,0.897-28.741,6.484c-9.14,8.163-20.51,78.44-20.51,78.44c16.68,4.644,34.008,6.527,51.297,5.576
				c0,0,0.207-19.544,6.381-32.661C391.08,237.129,397.052,222.07,402.004,206.663z"/>
			<path style="opacity:0.4;fill:#FFFFFF;enable-background:new    ;" d="M326.449,278.827c16.68,4.645,34.008,6.532,51.297,5.587
				c0,0,0-2.414,0.333-6.105c0.138-1.747,0.345-3.794,0.632-6.001c0.287-2.207,0.701-4.725,1.15-7.231
				c0.276-1.345,0.598-2.702,0.943-4.047c0.802-3.194,1.895-6.307,3.265-9.301c0.759-1.609,1.495-3.208,2.207-4.771
				c1.23-2.736,2.403-5.392,3.449-7.933c2.299-5.346,4.254-10.232,5.886-14.508c1.15-3.07,2.184-5.817,3.024-8.174
				c0.931-2.633,1.667-4.794,2.207-6.404c0.701-2.127,1.046-3.288,1.046-3.288c-0.571-0.715-1.186-1.395-1.84-2.035
				c-6.416-6.324-14.899-10.121-23.89-10.692h-0.575c-13.037-0.609-19.257,0.23-24.246,3.139c-1.609,0.963-3.115,2.088-4.495,3.357
				c-1.298,1.406-2.32,3.044-3.012,4.829c-2.125,4.941-3.87,10.038-5.219,15.244l-0.759,2.794c-1.15,4.265-2.23,8.806-3.265,13.405
				c-0.299,1.311-0.586,2.621-0.874,3.92c-0.425,2-0.851,3.989-1.253,5.955c-1.035,4.955-1.966,9.76-2.782,14.083
				c-1.15,6.208-2.081,11.405-2.633,14.635C326.668,277.562,326.449,278.827,326.449,278.827z M376.689,194.558
				c1.153,0.029,2.305,0.118,3.449,0.264c4.599,0.621,11.669,4.311,11.496,6.059c-0.172,1.747-2.863,6.208-9.737,5.127
				c-2.395-0.442-4.669-1.391-6.668-2.782c-3.794-2.506-6.553-5.898-6.829-7.001c-0.345-1.322,4.116-1.77,8.3-1.644L376.689,194.558
				z"/>
			<path style="opacity:0.2;fill:#263238;enable-background:new    ;" d="M333.715,240.647
				c10.853-4.507,19.429-23.119,19.429-23.119l-6.162-3.725l-8.369,6.725l-0.759,2.794c-1.15,4.265-2.23,8.806-3.265,13.405
				C334.29,238.037,334.003,239.348,333.715,240.647z"/>
			<polygon style="fill:#407BFF;" points="393.485,242.624 412.201,235.749 412.742,237.336 394.014,244.004 			"/>
			<path style="fill:#407BFF;" d="M290.553,282.019l55.793,8.847c2.87,0.455,4.828,3.151,4.373,6.021l-4.825,30.429
				c-0.455,2.87-3.151,4.828-6.021,4.373l-55.793-8.847c-2.87-0.455-4.828-3.151-4.373-6.021l4.825-30.429
				C284.987,283.522,287.683,281.564,290.553,282.019z"/>
			<polyline style="fill:none;stroke:#FFFFFF;stroke-width:2;stroke-linecap:round;stroke-linejoin:round;" points="
				309.953,299.082 298.928,304.796 307.642,313.637 			"/>
			<polyline style="fill:none;stroke:#FFFFFF;stroke-width:2;stroke-linecap:round;stroke-linejoin:round;" points="
				320.484,315.671 331.497,309.958 322.794,301.117 			"/>
			
				<line style="fill:none;stroke:#FFFFFF;stroke-width:2;stroke-linecap:round;stroke-linejoin:round;" x1="311.482" y1="314.246" x2="318.955" y2="300.508"/>
			<path style="fill:#A77865;" d="M340.487,203.387c0,0-25.379,22.955-28.161,26.945c-2.782,3.989-2.648,44.077-2.648,44.077
				s-1.247,2.525-1.278,4.333c-0.016,0.957-0.541,6.776-0.357,7.351c0,0,3.416,9.404,11.891-0.119l2.48,0.38l-5.162-10.241
				l7.989-38.301l19.902-16.112L340.487,203.387z"/>
			<path style="fill:#407BFF;" d="M356.202,195.121c2.978,6.312,0.713,19.601-4.782,24.292c-5.814,4.822-11.961,9.228-18.394,13.186
				L323,219.459c0,0,10.669-10.416,17.13-16.417C344.525,198.782,350.147,196.011,356.202,195.121z"/>
			<path style="opacity:0.4;fill:#FFFFFF;enable-background:new    ;" d="M356.202,195.121c2.978,6.312,0.713,19.601-4.782,24.292
				c-5.814,4.822-11.961,9.228-18.394,13.186L323,219.459c0,0,10.669-10.416,17.13-16.417
				C344.525,198.782,350.147,196.011,356.202,195.121z"/>
		</g>
		<g>
			<path style="fill:#A77865;" d="M370.676,196.282c1.851,5.288,8.737,7.703,12.347,8.048c2.733,0.431,5.416-1.019,6.553-3.541
				c0,0-4.127-2.058-3.713-4.369c0.292-1.413,0.871-2.751,1.701-3.932c0.43-0.674,0.898-1.323,1.403-1.943l-6.611-14.175
				C380.885,182.51,376.367,194.305,370.676,196.282z"/>
			<path style="opacity:0.2;fill:#263238;enable-background:new    ;" d="M382.092,182.912c-3.15,6.898,1.299,11.646,3.771,13.462
				c0.292-1.413,0.871-2.751,1.701-3.932L382.092,182.912z"/>
			<path style="fill:#A77865;" d="M404.257,164.506c0,0,2.115,11.68-3.978,16.359c-6.093,4.679-6.714-17.141-6.714-17.141
				L404.257,164.506z"/>
			<path style="opacity:0.4;fill:#263238;enable-background:new    ;" d="M404.257,164.506c0,0,2.115,11.68-3.978,16.359
				c-6.093,4.679-6.714-17.141-6.714-17.141L404.257,164.506z"/>
			<path style="fill:#A77865;" d="M382.472,190.695c2.792,3.893,7.841,5.441,12.336,3.782c2.856-1.003,5.221-3.059,6.61-5.748
				c0.195-0.356,0.368-0.747,0.54-1.15c2.851-7.254,3.449-24.959-4.231-24.304c-6.346,0.54-12.554-1.414-15.796,4.07
				c-0.926,1.56-1.47,3.317-1.587,5.127C379.655,180.934,378.85,185.843,382.472,190.695z"/>
			<path style="fill:#263238;" d="M392.68,176.658c-0.138,0.667,0.184,1.276,0.632,1.345c0.448,0.069,0.885-0.448,0.989-1.15
				c0.104-0.701-0.195-1.276-0.632-1.334C393.232,175.462,392.784,175.968,392.68,176.658z"/>
			<path style="fill:#263238;" d="M400.371,177.75c-0.138,0.667,0.195,1.276,0.632,1.345c0.437,0.069,0.885-0.448,0.977-1.15
				c0.092-0.701-0.184-1.276-0.632-1.345C400.9,176.531,400.464,177.106,400.371,177.75z"/>
			<path style="fill:#8E4F42;" d="M397.877,177.738c0.518,2.193,1.334,4.305,2.426,6.277c-1.042,0.542-2.271,0.596-3.357,0.149
				L397.877,177.738z"/>
			<path style="fill:#263238;" d="M390.657,173.83c0.143,0.043,0.298,0.003,0.402-0.103c0.714-0.735,1.731-1.093,2.748-0.966
				c0.218,0.043,0.431-0.094,0.483-0.31c0.048-0.211-0.084-0.42-0.294-0.468c-0.005-0.001-0.011-0.002-0.016-0.003l0,0
				c-1.267-0.186-2.547,0.241-3.449,1.15c-0.155,0.16-0.155,0.414,0,0.575l0,0C390.567,173.751,390.61,173.793,390.657,173.83z"/>
			<path style="fill:#263238;" d="M404.05,175.566c0.074,0.028,0.156,0.028,0.23,0c0.203-0.051,0.326-0.258,0.275-0.461
				c-0.003-0.011-0.006-0.022-0.01-0.033l0,0c-0.37-1.244-1.322-2.23-2.552-2.644c-0.206-0.064-0.425,0.051-0.489,0.258
				c-0.002,0.006-0.004,0.012-0.005,0.018l0,0c-0.059,0.213,0.064,0.433,0.276,0.494l0,0c0.964,0.355,1.705,1.143,2,2.127
				C403.821,175.445,403.924,175.536,404.05,175.566z"/>
			<path style="fill:none;stroke:#263238;stroke-width:0.5;stroke-linecap:round;stroke-linejoin:round;" d="M391.611,184.464
				c0,0,1.414,3.035,4.3,2.92"/>
			<path style="fill:#A77865;" d="M387.944,162.977l0.115,3.748c-1.36,0.494-2.107,1.954-1.713,3.346
				c0.897,3.219-1.322,7.887-3.886,9.588c0,0,0-1.356-1.15-1.15c-1.15,0.207-1.506,7.266,0.391,10.818c0,0-4.058-3.736-5.265-11.29
				c-1.15-6.978-0.931-11.404,0-14.75L387.944,162.977z"/>
			<path style="opacity:0.4;fill:#263238;enable-background:new    ;" d="M387.944,162.977l0.115,3.748
				c-1.36,0.494-2.107,1.954-1.713,3.346c0.897,3.219-1.322,7.887-3.886,9.588c0,0,0-1.356-1.15-1.15
				c-1.15,0.207-1.506,7.266,0.391,10.818c0,0-4.058-3.736-5.265-11.29c-1.15-6.978-0.931-11.404,0-14.75L387.944,162.977z"/>
			<path style="fill:#263238;" d="M375.792,167.472c4.103,0.402,8.243,0.149,12.267-0.747c11.577-2.299,16.509,1.954,16.509,1.954
				c1.622-1.459,2.504-3.569,2.403-5.748c-0.333-3.334-4.966-3.897-4.966-3.897s-1.391-3.759-4.461-4.898
				c-3.069-1.138-6.151,1.713-6.151,1.713s-3.828-3.702-8.289-2.644c-3.095,0.635-5.323,3.348-5.346,6.507
				c0,0-5.231,0.529-5.116,3.219C372.757,165.621,375.792,167.472,375.792,167.472z"/>
			<path style="fill:none;stroke:#263238;stroke-width:0.5;stroke-linecap:round;stroke-linejoin:round;" d="M393.577,172.887
				c2.076,0,3.759,1.94,3.759,4.334s-1.683,4.334-3.759,4.334c-2.076,0-3.759-1.94-3.759-4.334S391.501,172.887,393.577,172.887z"/>
			<path style="fill:none;stroke:#263238;stroke-width:0.5;stroke-linecap:round;stroke-linejoin:round;" d="M406.787,177.865
				c-0.298,2.074-2.222,3.513-4.296,3.215c-2.074-0.298-3.513-2.222-3.215-4.296c0.268-1.866,1.866-3.251,3.751-3.253
				C405.256,173.702,406.932,175.635,406.787,177.865z"/>
			<path style="fill:none;stroke:#263238;stroke-width:0.5;stroke-linecap:round;stroke-linejoin:round;" d="M397.325,177.738
				c0,0,1.219-0.759,1.943,0.126"/>
			<path style="fill:none;stroke:#263238;stroke-width:0.5;stroke-linecap:round;stroke-linejoin:round;" d="M389.818,177.221
				l-6.587-0.885c-0.863-0.111-1.736,0.124-2.426,0.655l-0.287,0.23"/>
			<path style="fill:#A77865;" d="M375.723,178.808c0.661,2.022,2.095,3.7,3.989,4.668c2.518,1.253,4.311-0.862,4.058-3.518
				c-0.23-2.368-1.805-5.932-4.599-6.07c-1.98-0.066-3.639,1.485-3.705,3.465C375.451,177.85,375.538,178.345,375.723,178.808z"/>
		</g>
		<path style="fill:#A77865;" d="M445.163,217.283c0.189-1.133-0.932-2.205-1.592-1.614c-0.66,0.591-2.812,2.405-4.358,4.011
			c-0.668,0.693-1.644,1.609-2.585,2.492c-0.122,0.09-0.246,0.178-0.357,0.288l-0.915,0.913c-0.46,0.441-0.861,0.835-1.134,1.132
			l-1.051,1.049c-0.623,0.63-1.123,1.372-1.473,2.185l-2.171,7.836l3.388,3.371c4.24,1.382,8.037-5.977,8.037-5.977l2.733-3.64
			c0.92-1.225,0.83-2.932-0.214-4.053l-2.648-2.729c0.012-0.014,0.027-0.032,0.039-0.046
			C441.888,221.305,444.974,218.416,445.163,217.283z"/>
	</g>
</g>
<g id="Character_1">
	<path style="opacity:0.3;" d="M284.204,182.782h-0.583v-5.083h-32.532v5.083h-0.036c-1.241,0-2.25,1.01-2.25,2.251v4.332
		c0,1.241,1.009,2.25,2.25,2.25h15.038c0.732,0,1.329,0.596,1.329,1.329v5.968h-3.659v5.098c-1.735,0.768-3.134,1.437-3.48,1.697
		c-1.022,0.767-1.824,4.16-1.824,4.16l-1.668,2.474c-0.478-0.274-0.784-0.371-0.784-0.371l-16.999,23.239
		c-10.378-6.461-21.258-12.079-32.534-16.802c-6.344,12.619,0.558,29.885,0.558,29.885s23.843,12.909,35.184,9.609
		c11.34-3.3,20.067-36.543,20.067-36.543c-0.338-1.587-0.792-2.905-1.299-4.013l1.433-2.867c0.146-0.007,0.422-0.041,0.923-0.127
		c0.118-0.02,0.264-0.055,0.424-0.099v7.057c0,1.977,1.603,3.579,3.579,3.579h1.159c1.977,0,3.579-1.603,3.579-3.579v-10.963
		c0.233-0.173,0.428-0.336,0.553-0.479c1.162-1.336,1.22-9.191,0-9.214c-0.11-0.002-0.312,0.041-0.553,0.104v-1.844h-3.659v-5.968
		c0-1.284-1.044-2.329-2.329-2.329h-15.038c-0.689,0-1.25-0.561-1.25-1.25v-4.332c0-0.689,0.561-1.251,1.25-1.251h0.036v5.083
		h32.532v-5.083h0.583V182.782z"/>
	<g>
		<g>
			<path style="fill:#263238;" d="M161.832,223.423c-4.125,4.752-25.109,45.176-21.054,54.611
				c4.055,9.435,37.682-1.441,37.682-1.441l-2.01-13.328c0,0-13.06,0.465-14.315-0.779c-1.255-1.243,17.673-20.136,17.673-20.136
				L161.832,223.423z"/>
			<g style="opacity:0.2;">
				<path style="fill:#FFFFFF;" d="M140.779,278.12c0.498,1.092,1.367,1.973,2.452,2.487l0,0l0.674,0.302h0.093
					c0.208,0.087,0.421,0.161,0.639,0.221c0.944,0.303,1.918,0.506,2.905,0.604l0.848,0.081c0.418,0,0.837,0.058,1.266,0.07h1.162
					c11.254,0.109,27.65-5.184,27.666-5.287l-2.01-13.327c0,0-3.39,0.121-6.882,0.075c-3.362-0.044-6.817-0.243-7.433-0.853
					c-0.302-0.302,0.593-1.65,2.115-3.486l0,0c3.695-4.543,11.096-12.107,14.152-15.198l1.383-1.394l-17.998-18.905
					C157.685,228.214,136.701,268.638,140.779,278.12z"/>
			</g>
			<polygon style="opacity:0.2;fill:#263238;enable-background:new    ;" points="168.724,279.275 169.982,274.324 169.06,263.333 
				172.466,263.333 174.36,275.304 172.556,278.303 			"/>
			<polygon style="opacity:0.2;fill:#263238;enable-background:new    ;" points="169.06,253.501 164.85,241.12 165.928,256.987 			
				"/>
			<path style="opacity:0.2;fill:#263238;enable-background:new    ;" d="M162.305,262.666c0,0-1.764,4.55-5.367,7.521
				c0,0,5.751-2.254,6.772-7.169L162.305,262.666z"/>
		</g>
		<g>
			<path style="fill:#E9B376;" d="M193.483,447.794l5.81,0.093c5.914-27.782,10.097-62.164,12.7-88.098
				c0.407-4.067,0.779-7.913,1.162-11.503c0.151-1.708,0.302-3.346,0.441-4.927c0.697-7.797,1.162-13.943,1.464-17.801
				c0.209-2.789,0.314-4.322,0.314-4.322H194.25l0.198,5.357l0.697,17.673l0.07,2.022l0.442,11.677l0.732,19.881
				C189.172,405.848,193.483,447.794,193.483,447.794z"/>
			<path style="fill:#E9B376;" d="M146.308,446.307l5.728,1.081c11.468-28.665,22.24-65.371,29.246-91.015
				c1.081-3.974,2.08-7.692,2.975-11.062c0-0.174,0.081-0.337,0.128-0.5c1.766-6.693,3.126-12.026,3.974-15.407l1.011-4.102
				l-20.682-3.579l-1.162,8.714l-1.731,12.781l-0.337,2.51l-1.162,8.726l-3.149,23.402
				C149.201,404.233,146.308,446.307,146.308,446.307z"/>
			<path style="fill:#263238;" d="M210.668,467.105c-1.082-0.879-2.314-1.556-3.637-1.998l0,0c0,0-3.962-3.927-5.88-15.756
				l-5.182-1.359c-1.804-0.43-3.685,0.307-4.717,1.848c-0.143,0.21-0.253,0.442-0.325,0.686c-0.268,1.269-0.454,2.553-0.558,3.846
				c-0.29,4.325-0.317,8.663-0.081,12.991h0.941l0.372-8.134c0.139-2.777,2.266,0.476,2.87,3.486
				c0.604,3.009,1.894,6.147,7.959,6.298C209.518,469.116,212.457,468.837,210.668,467.105z"/>
			<path style="fill:#263238;" d="M191.066,450.002c-0.337-2.765-0.441-7.576-0.441-7.576l11.526,1.278c0,0-1.394,5.473-0.244,9.586
				C196.097,451.698,191.066,450.002,191.066,450.002z"/>
			<path style="fill:#263238;" d="M163.772,467.105c-1.083-0.875-2.315-1.548-3.637-1.987l0,0c0,0-3.962-3.927-5.868-15.756
				l-5.194-1.359c-1.804-0.43-3.685,0.307-4.717,1.848c-0.143,0.21-0.253,0.442-0.325,0.686c-0.268,1.269-0.454,2.553-0.558,3.846
				c-0.288,4.325-0.311,8.663-0.07,12.99h0.883l0.372-8.134c0.139-2.777,2.266,0.476,2.87,3.486s1.894,6.147,7.971,6.298
				C162.622,469.116,165.561,468.837,163.772,467.105z"/>
			<path style="fill:#263238;" d="M144.182,450.002c-0.349-2.765-0.453-7.576-0.453-7.576l11.526,1.278c0,0-1.394,5.473-0.244,9.586
				C149.201,451.698,144.182,450.002,144.182,450.002z"/>
		</g>
		<path style="opacity:0.2;fill:#263238;enable-background:new    ;" d="M178.459,202.753c1.336,0.952,2.849,1.628,4.45,1.987
			c4.706,1.092,7.924,0.29,10.028-1.871c-2.816,0.697-5.783,0.452-8.447-0.697C182.496,201.436,180.275,201.65,178.459,202.753z"/>
		<g>
			<path style="fill:none;stroke:#263238;stroke-width:0.5;stroke-linecap:round;stroke-linejoin:round;" d="M193.924,187.915
				c0,2.417,1.069,4.369,2.324,4.369c1.255,0,2.394-1.952,2.394-4.369c0-2.417-1.069-4.369-2.394-4.369
				S193.924,185.498,193.924,187.915z"/>
			<path style="fill:#E9B376;" d="M178.18,202.508c0.085,0.08,0.179,0.15,0.279,0.209c1.326,1.011,2.838,1.749,4.45,2.173
				c4.706,1.092,7.924,0.441,10.028-1.685l0,0c2.94-3.195,3.672-8.854,3.253-15.686c-0.073-2.719-0.575-5.409-1.487-7.971
				c0,0,0-0.105,0-0.128c0-0.023-0.07-0.198-0.116-0.291c-1.171-2.936-3.753-5.077-6.855-5.682
				c-1.324-0.296-2.676-0.448-4.032-0.453C170.372,172.891,167.978,194.944,178.18,202.508z"/>
			<path style="fill:#E9B376;" d="M177.111,214.779c-0.825,3.788,4.09,5.333,4.09,5.333c8.029-3.486,9.516-7.704,9.516-7.704
				c-6.704-3.486-4.764-13.374-4.764-13.374l-1.36,0.674l-9.563,1.871c0,0,2.649,5.089,2.998,6.251l0,0
				C179.842,213.93,177.111,214.779,177.111,214.779z"/>
			<path style="fill:#263238;" d="M194.714,179.49c0,0,0.732,9.296-8.134,13.351c0,0-3.799,9.702-9.388,9.83
				c-7.634,0.186-14.35-10.655-11.712-21.705C168.931,166.628,190.648,165.466,194.714,179.49z"/>
			<path style="fill:#263238;" d="M178.459,169.568c0,0,8.9-2.254,13.827,1.336c5.752,4.183,7.936,8.505,1.162,15.221
				c0,0-14.954-4.845-19.927-3.823c-2.907,0.586-5.76,1.414-8.529,2.475C163.911,174.901,173.486,167.546,178.459,169.568z"/>
			<path style="fill:#263238;" d="M191.089,187.915c0,0-2.324,10.76,1.325,19.939l-2.796,0.591l-0.738-2.638
				c-0.509,0.157-0.719,3.372-1.357,3.559c-6.513,1.901-18.276,4.726-23.612,1.835c-7.355-3.985-0.616-17.359-0.302-25.075
				c0.314-7.715,3.66-19.114,14.85-16.558C189.648,172.124,191.089,187.915,191.089,187.915z"/>
			
				<line style="fill:none;stroke:#263238;stroke-width:0.5;stroke-linecap:round;stroke-linejoin:round;" x1="198.307" y1="187.229" x2="189.765" y2="187.229"/>
			<g>
				<path style="fill:#263238;" d="M169.529,177.242c0.85-2.378,0.457-5.202-1.147-7.152c-1.604-1.95-4.409-2.88-6.815-2.114
					c-2.406,0.766-4.188,3.267-3.968,5.783c0.147,1.682,1.122,3.238,2.475,4.247c1.354,1.009,3.055,1.494,4.743,1.53
					c-2.496,1.733-5.608,2.559-8.635,2.293c2.332,1.797,5.452,2.53,8.34,1.96c-1.629,1.163-3.436,2.077-5.338,2.7
					c2.071,0.95,4.524,1.032,6.655,0.223c2.13-0.809,3.91-2.5,4.827-4.586L169.529,177.242z"/>
			</g>
		</g>
		<g>
			<g>
				<path style="fill:#407BFF;" d="M158.45,369.254c-6.495,12.644-9.787,45.353-13.307,70.108l11.122,1.787l15.208-46.474
					l15.039-54.234l4.508-16.523l0,0l1.186,45.84c-5.068,16.447-3.514,42.781-3.847,68.633l13.792,1.405l13.525-99.402
					c10.457-61.432-7.425-75.944-7.425-75.944l-31.872,6.414c-14.431,24.54-11.004,53.054-11.004,53.054L158.45,369.254z"/>
				<path style="opacity:0.2;fill:#263238;enable-background:new    ;" d="M185.663,340.338l0.848,0.104l4.508-16.523
					c0,0-9.667-16.511-6.646-25.109C183.943,299.414,173.532,314.856,185.663,340.338z"/>
			</g>
			<path style="opacity:0.2;fill:#263238;enable-background:new    ;" d="M173.298,276.708l41.946,0.542c0,0-0.53-2.389-1.241-3.503
				s-0.301,0-0.301,0l-39.692,1.491L173.298,276.708z"/>
		</g>
		<g>
			<g>
				<path style="fill:none;stroke:#263238;stroke-miterlimit:10;" d="M265.215,202.485V188.48c0-1.01-0.819-1.828-1.828-1.828
					h-15.038c-0.967,0-1.75-0.784-1.75-1.75v-4.332c0-0.967,0.784-1.75,1.75-1.75h33.15"/>
				
					<rect x="248.384" y="173.236" transform="matrix(-1 -1.224647e-16 1.224647e-16 -1 529.2995 357.6377)" style="fill:#407BFF;" width="32.532" height="11.166"/>
				
					<rect x="248.384" y="173.236" transform="matrix(-1 -1.224647e-16 1.224647e-16 -1 529.2995 357.6377)" style="opacity:0.3;fill:#FFFFFF;" width="32.532" height="11.166"/>
				<path style="fill:#263238;" d="M264.635,220.424h1.159c1.977,0,3.579-1.603,3.579-3.579v-22.397h-8.318v22.397
					C261.056,218.821,262.658,220.424,264.635,220.424z"/>
				<g style="opacity:0.3;">
					<path style="fill:#FFFFFF;" d="M248.389,177.64c0.444-0.168,1.246,0.146,1.462,0.569c0.216,0.423,0.269,0.913,0.475,1.34
						c0.534,1.107,2.177,1.473,3.13,0.696c0.707-0.576,1.108-1.657,2.015-1.749c0.767-0.078,1.377,0.644,1.68,1.353
						c0.303,0.709,0.481,1.517,1.052,2.035c0.516,0.469,1.253,0.6,1.949,0.626c0.937,0.034,1.931-0.11,2.667-0.691
						c0.669-0.529,1.034-1.343,1.374-2.124c0.34-0.782,0.702-1.597,1.367-2.13c0.665-0.534,1.73-0.674,2.334-0.071
						c0.44,0.439,0.52,1.131,0.902,1.623c0.359,0.462,0.987,0.699,1.562,0.589c0.575-0.11,1.071-0.562,1.233-1.125
						c0.133-0.46,0.083-1.022,0.445-1.336c0.503-0.437,1.331,0.067,1.531,0.703c0.2,0.636,0.034,1.323,0.073,1.989
						c0.058,0.998,0.647,1.986,1.567,2.377c0.92,0.391,2.131,0.061,2.611-0.816c0.434-0.793,0.24-1.823,0.697-2.603
						c0.408-0.695,1.567-1.264,2.326-0.992l0.076-4.664h-32.532L248.389,177.64z"/>
				</g>
			</g>
			<path style="fill:#263238;" d="M203.766,213.942c0,0-10.632-3.788-26.655,0.837c-16.023,4.625-16.627,11.445-16.627,11.445
				s10.155,23.018,11.759,49.08l41.76-1.557C214.003,273.747,218.987,236.96,203.766,213.942z"/>
			<path style="opacity:0.2;fill:#FFFFFF;enable-background:new    ;" d="M160.484,226.224c0,0,10.155,23.018,11.759,49.08
				l41.76-1.557c0.499-4.242,0.755-8.51,0.767-12.781c0.082-6.252-0.306-12.502-1.162-18.696
				c-1.394-9.644-4.264-19.939-9.842-28.375c0,0-10.632-3.788-26.655,0.837C161.088,219.357,160.484,226.224,160.484,226.224z"/>
			<path style="opacity:0.2;fill:#263238;enable-background:new    ;" d="M204.347,243.885c0,0,1.731,10.597,10.457,17.127
				c0.082-6.252-0.306-12.502-1.162-18.696L204.347,243.885z"/>
			<path style="fill:#E9B376;" d="M250.488,213.21l5.264-7.808c0,0,0.802-3.393,1.824-4.16c1.022-0.767,11.131-5.078,12.351-5.054
				c1.22,0.023,1.162,7.878,0,9.214c-1.162,1.336-7.599,4.195-9.296,4.485c-1.696,0.291-0.86,0-0.86,0l-4.648,9.296L250.488,213.21z
				"/>
			<path style="fill:#263238;" d="M203.766,213.942c11.276,4.723,22.156,10.341,32.534,16.802l16.999-23.239
				c0,0,4.578,1.417,6.274,9.388c0,0-8.726,33.243-20.067,36.543c-11.34,3.3-35.183-9.609-35.183-9.609
				S197.422,226.561,203.766,213.942z"/>
			<path style="opacity:0.2;fill:#FFFFFF;enable-background:new    ;" d="M203.766,213.942
				c11.276,4.723,22.156,10.341,32.534,16.802l16.999-23.239c0,0,4.578,1.417,6.274,9.388c0,0-8.726,33.243-20.067,36.543
				c-11.34,3.3-35.183-9.609-35.183-9.609S197.422,226.561,203.766,213.942z"/>
			<path style="opacity:0.2;fill:#263238;enable-background:new    ;" d="M175.053,242.081c0,0,4.74,1.686,8.981-2.662
				c4.242-4.348,6.661-18.138,6.661-18.138L175.053,242.081z"/>
			<path style="fill:#263238;" d="M192.937,212.435c0,0-4.162,28.422-17.61,29.646c-13.448,1.224-19.473-21.282-17.199-23.943
				C160.403,215.478,177.653,212.235,192.937,212.435z"/>
			<path style="opacity:0.3;fill:#FFFFFF;enable-background:new    ;" d="M192.937,212.435c0,0-4.162,28.422-17.61,29.646
				c-13.448,1.224-19.473-21.282-17.199-23.943C160.403,215.478,177.653,212.235,192.937,212.435z"/>
		</g>
		<path style="fill:#E9B376;" d="M191.089,190.157c0-1.452-1.162-3.904-3.486-3.567c-2.324,0.337-3.648,6.123,2.115,7.413
			C190.59,194.189,191.089,193.213,191.089,190.157z"/>
	</g>
	<path style="opacity:0.2;fill:#263238;enable-background:new    ;" d="M236.3,230.744c0,0,3.962,2.748,4.291,3.997
		c0,0-0.189-3.311-3.48-5.106L236.3,230.744z"/>
</g>
</svg>
